<svg width="397" height="810" viewBox="0 0 397 810" fill="none" xmlns="http://www.w3.org/2000/svg">
<g id="ocean-dark" clip-path="url(#clip0_461_4617)">
<rect id="ocean-3" width="397" height="810" fill="#4E5D70"/>
<g id="ocean-0">
<path d="M409 438.5C409 438.5 305.794 389.875 268.5 332C251.489 305.602 244.723 276.146 237.956 246.687C231.202 217.281 224.446 187.873 207.5 161.5C184.942 126.394 159.495 117.512 132.936 108.243C108.929 99.8639 84.0133 91.1678 59.5 62.5C21.2663 17.7864 -14 -69 -14 -69H409V438.5Z" fill="#526175"/>
<path d="M79.5 556C87.5869 528.173 105.5 486.5 105.5 486.5C105.5 486.5 148.451 564.216 161.611 640.744C177.126 569.024 214.997 500.5 214.997 500.5C214.997 500.5 232.91 542.173 240.997 570C245.312 584.847 246.341 598.235 247.31 610.842C248.938 632.029 250.397 651.01 266.997 671C273.723 679.098 282.99 685.912 293.538 693.666C308.334 704.544 325.65 717.274 341.997 738C364.322 766.305 400.497 832.5 400.497 832.5V874.5L313.997 874H225.997C225.997 874 238.246 839.588 221.997 817.5C212.267 804.274 203.864 795.71 194.381 786.047L194.38 786.046C189.767 781.346 184.898 776.385 179.497 770.5C168.524 758.544 161.792 743.831 158.252 727.5C154.365 738.271 148.737 748.07 141 756.5C135.599 762.385 130.731 767.346 126.118 772.046L126.117 772.047C116.634 781.71 108.23 790.273 98.5 803.5C82.2516 825.588 94.5 860 94.5 860H6.5L-80 860.5V818.5C-80 818.5 -43.825 752.305 -21.5 724C-5.15293 703.274 12.1622 690.545 26.9589 679.667L26.9598 679.666C37.5071 671.912 46.7748 665.098 53.5 657C70.1001 637.01 71.559 618.029 73.1875 596.842C74.1564 584.235 75.1854 570.847 79.5 556Z" fill="#526175"/>
</g>
<g id="ocean-1">
<path d="M77.9998 404C96.6385 365.163 150 319 150 319C150 319 107.5 369 91 395.5C79.8877 413.347 67.4998 454.5 63.4998 487C59.6534 518.252 60.9468 532.456 62.2289 546.536C62.8657 553.53 63.4998 560.493 63.4998 569.5C63.4998 617 42.9998 678 24.4998 703C22.8962 705.167 21.3975 707.195 19.9917 709.098C-0.359039 736.643 -1.26024 737.863 -19.5002 752C-58.2386 782.024 -60.0001 849.5 -60.0001 849.5L-107.5 869C-107.5 869 -74.7304 758.808 -39.0001 713C-30.5732 702.196 -18.0652 696.712 -5.27406 691.103C11.5336 683.733 28.8302 676.149 37.9998 656C53.0297 622.974 61.9998 547 52.9998 556C50.4849 558.515 48.8289 564.075 46.461 572.025C40.3546 592.528 29.5135 628.927 -13.0002 670C-20.473 677.473 -28.1508 683.561 -35.9351 689.734C-62.5265 710.82 -90.3596 732.89 -115.5 814.5C-120.299 830.079 -163.293 778.038 -157 763C-132.615 704.723 -74.1239 675.731 -34.9825 656.331C-20.7285 649.266 -9.04053 643.473 -2.50021 638C21.9998 617.5 28.9998 591 24.4998 591C19.9998 591 14.9998 592.5 -16.0002 615.5C-47.0002 638.5 -145 726.5 -145 726.5C-145 726.5 -165.508 720.718 -162 713C-149.5 685.5 -80.5002 632 -19.5002 599.5C11.3923 583.041 28.4073 568.162 43.9998 526C49.994 509.792 53.9875 491.187 58.0186 472.407C63.1859 448.333 68.4152 423.971 77.9998 404Z" fill="#869DBA"/>
<path d="M17.4999 649C19.407 646.042 22.5218 642.869 25.2791 640.342C27.6381 638.181 31.1239 639.8 30.8529 642.988C30.4815 647.357 29.4927 652.65 26.9999 656C24.8919 658.833 21.0541 661.156 17.6656 662.796C14.8407 664.163 12.0833 661.584 13.1225 658.623C14.2543 655.397 15.7703 651.683 17.4999 649Z" fill="#869DBA"/>
<path d="M107.5 452.5C107.5 452.5 97.7579 481.444 93.4998 500.5C87.3649 527.956 87.0356 548.278 86.6696 570.859V570.861C86.4649 583.487 86.2488 596.819 84.9998 612.5C80.4998 669 77.3046 702.45 41.4998 742C30.0035 754.699 20.1339 760.96 8.32379 768.453C2.63278 772.063 -3.50882 775.96 -10.5002 781C-17.8876 786.326 -28.4402 794.144 -35.0472 805.229C-53.6235 830.293 -55 867 -55 867H12.5L12.6982 866.479L15.9999 867C15.9999 867 20.0476 853.519 22.9998 845C30.6562 822.906 40.8674 807.175 50.9484 791.645C61.951 774.695 72.7985 757.984 79.9998 733.5C88.7031 703.91 89.909 682.732 91.3684 657.099C91.911 647.569 92.4888 637.423 93.4998 626C94.9642 609.457 94.6547 594.108 94.3445 578.728C94.0482 564.036 93.7514 549.316 94.9998 533.5C97.7947 498.093 107.5 452.5 107.5 452.5Z" fill="#869DBA"/>
<path d="M85.9998 447.5C80.3622 458.775 76.4998 476.5 74.4998 489C73.5888 494.693 72.3014 519.797 75.4998 515C87.4998 497 95.9998 427.5 85.9998 447.5Z" fill="#869DBA"/>
<path d="M41.3461 692.759L41.3471 692.757L41.348 692.755C42.5231 690.776 43.6404 688.893 44.6382 687.144C45.357 685.883 46.6472 683.327 48.1756 680.298C52.7211 671.291 59.3741 658.108 59.3741 662.423C59.3741 684 26 761 27 727C27.3116 716.405 35.1352 703.223 41.3461 692.759Z" fill="#869DBA"/>
<path d="M88.635 730.409C85.9864 736.876 82.0812 746.62 79.4999 754C77.0693 760.949 74.1878 770.448 72.3521 776.651C71.7903 778.55 73.9426 779.897 75.3588 778.514C79.3457 774.619 84.7635 768.79 87.4999 763.5C92.2748 754.27 92.4808 739.731 92.0745 730.957C91.9798 728.912 89.4112 728.514 88.635 730.409Z" fill="#869DBA"/>
<path d="M107.5 725.5C107.5 725.5 103.468 743.622 97.4999 757.5C92.5896 768.918 85.6051 777.221 78.5701 785.584C72.0541 793.33 65.4947 801.128 60.4999 811.5C50.288 832.706 45.9999 870 45.9999 870H80.9999C80.9999 870 76.7252 845.798 80.9999 825.5C83.4503 813.865 88.6784 804.242 93.9267 794.582C98.8661 785.491 103.823 776.366 106.5 765.5C109.595 752.935 109.5 732.5 109.5 732.5L107.5 725.5Z" fill="#869DBA"/>
<path d="M-29.4384 785.759C-22.1635 780.238 0.18132 763.21 5.26358 758.5C8.00876 755.956 10.5089 751.697 12.1736 748.451C12.9924 746.854 11.4097 745.246 9.77051 745.976C2.08507 749.398 -13.1086 756.362 -16.7364 759.5C-29.831 770.825 -31.9035 780.146 -31.9967 784.626C-32.0259 786.026 -30.5539 786.605 -29.4384 785.759Z" fill="#869DBA"/>
<path d="M242.498 418C223.859 379.163 170.497 333 170.497 333C170.497 333 212.997 383 229.497 409.5C240.61 427.347 252.998 468.5 256.998 501C260.844 532.252 259.551 546.456 258.268 560.536C257.632 567.53 256.998 574.493 256.998 583.5C256.998 631 277.498 692 295.998 717L298.279 720.085C299.047 721.124 299.788 722.127 300.506 723.098C320.856 750.643 321.758 751.863 339.998 766C378.736 796.024 380.497 863.5 380.497 863.5L427.997 883C427.997 883 395.228 772.808 359.497 727C351.07 716.196 338.563 710.712 325.771 705.103C308.964 697.733 291.667 690.149 282.498 670C267.468 636.974 258.498 561 267.498 570C270.012 572.515 271.668 578.075 274.036 586.025C280.143 606.528 290.984 642.927 333.498 684C340.97 691.473 348.648 697.561 356.432 703.733C383.023 724.819 410.857 746.89 435.997 828.5C440.797 844.079 483.79 792.038 477.497 777C453.112 718.723 394.621 689.731 355.48 670.331C341.226 663.266 329.538 657.473 322.998 652C298.498 631.5 291.498 605 295.998 605C300.498 605 305.498 606.5 336.498 629.5C367.497 652.5 465.497 740.5 465.497 740.5C465.497 740.5 486.005 734.718 482.497 727C469.997 699.5 400.997 646 339.998 613.5C309.105 597.041 292.09 582.162 276.498 540C270.503 523.792 266.51 505.187 262.479 486.407C257.311 462.333 252.082 437.971 242.498 418Z" fill="#869DBA"/>
<path d="M302.997 663C301.09 660.042 297.976 656.869 295.218 654.342C292.859 652.181 289.373 653.8 289.644 656.988C290.016 661.357 291.005 666.65 293.497 670C295.605 672.833 299.443 675.156 302.832 676.796C305.657 678.163 308.414 675.584 307.375 672.623C306.243 669.397 304.727 665.683 302.997 663Z" fill="#869DBA"/>
<path d="M212.997 466.5C212.997 466.5 222.739 495.444 226.997 514.5C233.132 541.956 233.462 562.277 233.828 584.858V584.861C234.032 597.487 234.249 610.819 235.497 626.5C239.997 683 243.193 716.45 278.998 756C290.494 768.699 300.363 774.96 312.174 782.453C317.865 786.063 324.006 789.96 330.997 795C338.385 800.326 348.938 808.144 355.544 819.229C374.121 844.293 375.497 881 375.497 881H307.997L307.799 880.479L304.497 881C304.497 881 300.45 867.519 297.498 859C289.841 836.906 279.63 821.175 269.549 805.645C258.546 788.695 247.699 771.984 240.498 747.5C231.794 717.91 230.588 696.732 229.129 671.099V671.098C228.586 661.568 228.009 651.422 226.997 640C225.533 623.457 225.843 608.108 226.153 592.728C226.449 578.036 226.746 563.316 225.497 547.5C222.703 512.093 212.997 466.5 212.997 466.5Z" fill="#869DBA"/>
<path d="M234.497 461.5C240.135 472.775 243.997 490.5 245.997 503C246.908 508.693 248.196 533.797 244.997 529C232.997 511 224.498 441.5 234.497 461.5Z" fill="#869DBA"/>
<path d="M279.151 706.759L279.15 706.757L279.149 706.755C277.974 704.776 276.857 702.893 275.859 701.144C275.14 699.883 273.85 697.327 272.322 694.298C267.776 685.291 261.123 672.108 261.123 676.423C261.123 698 294.497 775 293.497 741C293.186 730.405 285.362 717.223 279.151 706.759Z" fill="#869DBA"/>
<path d="M231.862 744.409C234.511 750.876 238.416 760.62 240.997 768C243.428 774.949 246.31 784.448 248.145 790.651C248.707 792.55 246.555 793.897 245.139 792.514C241.152 788.619 235.734 782.79 232.997 777.5C228.223 768.27 228.017 753.731 228.423 744.957C228.518 742.912 231.086 742.514 231.862 744.409Z" fill="#869DBA"/>
<path d="M212.997 739.5C212.997 739.5 217.029 757.622 222.997 771.5C227.908 782.918 234.892 791.221 241.927 799.584L241.928 799.585C248.444 807.331 255.003 815.128 259.997 825.5C270.209 846.706 274.497 884 274.497 884H239.497C239.497 884 243.772 859.798 239.497 839.5C237.047 827.865 231.819 818.242 226.571 808.582C221.631 799.491 216.674 790.366 213.997 779.5C210.903 766.935 210.997 746.5 210.997 746.5L212.997 739.5Z" fill="#869DBA"/>
<path d="M349.936 799.759C342.661 794.238 320.316 777.21 315.234 772.5C312.489 769.956 309.988 765.697 308.324 762.451C307.505 760.854 309.088 759.246 310.727 759.976C318.412 763.398 333.606 770.362 337.234 773.5C350.328 784.825 352.401 794.146 352.494 798.626C352.523 800.026 351.051 800.605 349.936 799.759Z" fill="#869DBA"/>
</g>
<g id="ocean-2">
<path d="M-23.5002 713C-1.9536 698.564 1.51879 703.875 1.94719 704.857C1.98878 704.953 2.00819 705.045 2.01965 705.149C2.15075 706.332 2.57646 714.462 -8.50016 726C-11.2314 728.845 -13.6056 730.42 -16.2483 732.172C-17.7141 733.144 -19.2625 734.171 -21.0002 735.5C-23.2609 737.229 -25.1279 738.664 -26.7082 739.879C-35.0655 746.304 -35.4148 746.572 -43.714 751.589C-46.6115 753.341 -49.9544 750.986 -48.9051 747.767C-45.8723 738.463 -38.8415 723.279 -23.5002 713Z" fill="#596A80"/>
<path d="M60.0001 733.5C63.3574 727.625 68.5001 719.5 71.5001 720C75.4457 720.658 75.0001 738.5 68.5001 743C63.2584 746.629 54.0001 744 60.0001 733.5Z" fill="#596A80"/>
<path d="M-13.5001 795.5C-8.33171 790.676 -3.63824 789.177 -1.21949 788.71C-0.462997 788.565 0.0107841 789.328 -0.393749 789.984C-2.02461 792.627 -5.58403 798.099 -8.50006 800.5C-13.5312 804.643 -19.6133 809.662 -23.7397 813.069C-24.6148 813.791 -25.7957 812.751 -25.1788 811.798C-21.5453 806.188 -15.9166 797.755 -13.5001 795.5Z" fill="#596A80"/>
<path d="M11.4999 785C17.4762 771.461 34.4486 760.352 46.8579 753.715C52.1958 750.86 57.4339 755.933 54.8692 761.416C50.0331 771.756 42.7441 785.263 34.5 793.5C29.7222 798.273 22.6594 803.239 16.7602 807.029C12.1467 809.992 6.50429 806.436 7.34346 801.018C8.17491 795.649 9.48243 789.571 11.4999 785Z" fill="#596A80"/>
<path d="M343.998 727C322.451 712.564 318.979 717.875 318.55 718.857C318.509 718.953 318.489 719.045 318.478 719.149C318.347 720.332 317.921 728.462 328.998 740C331.729 742.845 334.103 744.42 336.746 746.172C338.211 747.144 339.76 748.171 341.498 749.5C343.758 751.229 345.625 752.664 347.206 753.879C355.563 760.304 355.912 760.572 364.211 765.589C367.109 767.341 370.452 764.986 369.402 761.767C366.37 752.463 359.339 737.279 343.998 727Z" fill="#596A80"/>
<path d="M260.497 747.5C257.14 741.625 251.997 733.5 248.997 734C245.052 734.658 245.497 752.5 251.997 757C257.239 760.629 266.497 758 260.497 747.5Z" fill="#596A80"/>
<path d="M333.997 809.5C328.829 804.676 324.136 803.177 321.717 802.71C320.96 802.565 320.487 803.328 320.891 803.984C322.522 806.627 326.081 812.099 328.997 814.5C334.029 818.643 340.111 823.662 344.237 827.069C345.112 827.791 346.293 826.751 345.676 825.798C342.043 820.188 336.414 811.755 333.997 809.5Z" fill="#596A80"/>
<path d="M308.997 799C303.021 785.461 286.049 774.352 273.639 767.715C268.302 764.86 263.063 769.933 265.628 775.416C270.464 785.756 277.753 799.263 285.997 807.5C290.775 812.273 297.838 817.239 303.737 821.029C308.351 823.992 313.993 820.436 313.154 815.018C312.322 809.649 311.015 803.571 308.997 799Z" fill="#596A80"/>
</g>
<g id="ocean-3_2">
<path d="M43 550.5C38.0107 550.557 29.6436 562.602 32 567C34.0805 570.883 40.5 568 43 563.5C45.6989 558.642 48.5569 550.436 43 550.5Z" fill="#4E5D70"/>
<path d="M34 575.5C33 572 27.5909 578.122 27 579.5C25.5 583 29.5 585.5 31.5 583.5C33.5 581.5 34.8242 578.385 34 575.5Z" fill="#4E5D70"/>
<path d="M-77.5 689.5C-71.0013 685.722 -61.827 682.468 -54.5726 680.227C-50.3233 678.915 -47.1601 683.319 -49.8533 686.858C-56.3701 695.421 -66.7493 707.052 -77.5 711C-88.0054 714.858 -106 714 -106 714C-106 714 -90.1884 696.877 -77.5 689.5Z" fill="#4E5D70"/>
<path d="M277.497 564.5C282.487 564.557 290.854 576.602 288.497 581C286.417 584.883 279.997 582 277.497 577.5C274.798 572.642 271.94 564.436 277.497 564.5Z" fill="#4E5D70"/>
<path d="M286.497 589.5C287.497 586 292.906 592.122 293.497 593.5C294.997 597 290.997 599.5 288.997 597.5C286.997 595.5 285.673 592.385 286.497 589.5Z" fill="#4E5D70"/>
<path d="M397.997 703.5C391.499 699.722 382.324 696.468 375.07 694.227C370.82 692.915 367.657 697.319 370.351 700.858C376.867 709.421 387.246 721.052 397.997 725C408.503 728.858 426.497 728 426.497 728C426.497 728 410.686 710.877 397.997 703.5Z" fill="#4E5D70"/>
</g>
</g>
<defs>
<clipPath id="clip0_461_4617">
<rect width="397" height="810" fill="white"/>
</clipPath>
</defs>
</svg>
