<svg id="icon" width="24" height="25" viewBox="0 0 24 25" fill="none" xmlns="http://www.w3.org/2000/svg">
<path d="M7.5 4.25H4.5C4.08579 4.25 3.75 4.58579 3.75 5V20C3.75 20.4142 4.08579 20.75 4.5 20.75H7.5C7.91421 20.75 8.25 20.4142 8.25 20V5C8.25 4.58579 7.91421 4.25 7.5 4.25Z" stroke="#A5BBD6" stroke-width="1.5" stroke-linecap="round" stroke-linejoin="round"/>
<path d="M3.75 8H8.25" stroke="#A5BBD6" stroke-width="1.5" stroke-linecap="round" stroke-linejoin="round"/>
<path d="M12 4.25H9C8.58579 4.25 8.25 4.58579 8.25 5V20C8.25 20.4142 8.58579 20.75 9 20.75H12C12.4142 20.75 12.75 20.4142 12.75 20V5C12.75 4.58579 12.4142 4.25 12 4.25Z" stroke="#A5BBD6" stroke-width="1.5" stroke-linecap="round" stroke-linejoin="round"/>
<path d="M8.25 17H12.75" stroke="#A5BBD6" stroke-width="1.5" stroke-linecap="round" stroke-linejoin="round"/>
<path d="M16.3763 4.00989L13.4785 4.78635C13.0784 4.89356 12.8409 5.30481 12.9481 5.70492L16.8304 20.1939C16.9376 20.594 17.3489 20.8314 17.749 20.7242L20.6468 19.9477C21.0469 19.8405 21.2843 19.4293 21.1771 19.0292L17.2948 4.54023C17.1876 4.14012 16.7764 3.90269 16.3763 4.00989Z" stroke="#A5BBD6" stroke-width="1.5" stroke-linecap="round" stroke-linejoin="round"/>
<path d="M16.0538 17.296L20.4004 16.1313" stroke="#A5BBD6" stroke-width="1.5" stroke-linecap="round" stroke-linejoin="round"/>
<path d="M13.7245 8.60267L18.0712 7.43799" stroke="#A5BBD6" stroke-width="1.5" stroke-linecap="round" stroke-linejoin="round"/>
</svg>
