<svg id="icon" width="24" height="25" viewBox="0 0 24 25" fill="none" xmlns="http://www.w3.org/2000/svg">
<path d="M12 17C14.4853 17 16.5 14.9853 16.5 12.5C16.5 10.0147 14.4853 8 12 8C9.51472 8 7.5 10.0147 7.5 12.5C7.5 14.9853 9.51472 17 12 17Z" stroke="#A5BBD6" stroke-width="1.5" stroke-linecap="round" stroke-linejoin="round"/>
<path d="M18.5069 8.061C18.7287 8.3867 18.9258 8.7286 19.0963 9.08381L21.5288 10.4341C21.8251 11.7949 21.8261 13.2034 21.5318 14.5645L19.098 15.9156C18.9268 16.2706 18.7293 16.6121 18.5069 16.9375L18.5537 19.7192C17.5234 20.6562 16.3042 21.3613 14.9782 21.787L12.5912 20.3548C12.1983 20.3841 11.8037 20.3837 11.4107 20.3539L9.02508 21.7853C7.6985 21.3615 6.47822 20.6581 5.44655 19.7227L5.4934 16.9394C5.27158 16.6137 5.07454 16.2718 4.90396 15.9166L2.4715 14.5663C2.17522 13.2055 2.17421 11.797 2.46852 10.4358L4.90233 9.08478C5.07348 8.72983 5.27105 8.38824 5.49339 8.0629L5.44657 5.28117C6.47688 4.3442 7.69614 3.63909 9.02211 3.21338L11.4091 4.64559C11.802 4.61633 12.1967 4.61665 12.5896 4.64652L14.9752 3.2151C16.3018 3.6389 17.5221 4.34225 18.5538 5.27772L18.5069 8.061Z" stroke="#A5BBD6" stroke-width="1.5" stroke-linecap="round" stroke-linejoin="round"/>
</svg>
