<svg id="icon" width="24" height="25" viewBox="0 0 24 25" fill="none" xmlns="http://www.w3.org/2000/svg">
<path d="M14.2495 19.9992V15.4991C14.2495 15.3001 14.1704 15.1094 14.0298 14.9687C13.8891 14.8281 13.6984 14.7491 13.4995 14.7491H10.4995C10.3005 14.7491 10.1098 14.8281 9.96912 14.9687C9.82847 15.1094 9.74945 15.3001 9.74945 15.4991V19.9992C9.74945 20.198 9.67045 20.3888 9.52981 20.5294C9.38918 20.6701 9.19844 20.7491 8.99954 20.7492L4.50009 20.7497C4.40159 20.7498 4.30406 20.7304 4.21305 20.6927C4.12205 20.655 4.03936 20.5998 3.9697 20.5301C3.90005 20.4605 3.8448 20.3778 3.8071 20.2868C3.7694 20.1958 3.75 20.0982 3.75 19.9997V11.3316C3.75 11.2271 3.77183 11.1238 3.8141 11.0282C3.85637 10.9326 3.91814 10.847 3.99545 10.7767L11.4949 3.95778C11.633 3.83226 11.8129 3.7627 11.9995 3.7627C12.186 3.76269 12.3659 3.83223 12.504 3.95775L20.0045 10.7767C20.0818 10.847 20.1436 10.9326 20.1859 11.0282C20.2282 11.1238 20.25 11.2271 20.25 11.3316V19.9997C20.25 20.0982 20.2306 20.1958 20.1929 20.2868C20.1552 20.3778 20.1 20.4605 20.0303 20.5301C19.9606 20.5998 19.878 20.655 19.7869 20.6927C19.6959 20.7304 19.5984 20.7498 19.4999 20.7497L14.9994 20.7492C14.8005 20.7491 14.6097 20.6701 14.4691 20.5295C14.3285 20.3888 14.2494 20.198 14.2495 19.9992V19.9992Z" stroke="#A5BBD6" stroke-width="1.5" stroke-linecap="round" stroke-linejoin="round"/>
</svg>
