<svg width="231" height="64" viewBox="0 0 231 64" fill="none" xmlns="http://www.w3.org/2000/svg">
<g clip-path="url(#clip0_419_5288)">
<path d="M26.2451 18.071L25.203 4.67163C25.1064 3.43034 26.0593 2.35678 27.3033 2.30531L35.5232 1.96517C37.0874 1.90045 38.2157 3.44538 37.6782 4.91572L32.6552 18.6552C32.3383 19.5219 31.5138 20.0983 30.591 20.0983H28.4363C27.2886 20.0983 26.3341 19.2152 26.2451 18.071Z" stroke="#A5BBD6"/>
<path d="M13.4704 8.23146L19.7401 4.38538C21.1207 3.53846 22.9119 4.42505 23.0758 6.0364L24.3272 18.3414C24.4169 19.2238 23.9674 20.0738 23.1874 20.4962L21.9255 21.1798C20.9358 21.7159 19.701 21.4176 19.0652 20.4888L12.8061 11.3464C12.096 10.3092 12.399 8.88875 13.4704 8.23146Z" stroke="#A5BBD6"/>
<path d="M5.1437 17.9688L7.91445 13.5892C8.75169 12.2658 10.665 12.2177 11.5676 13.4973L17.4647 21.8568C18.0477 22.6834 17.9914 23.8011 17.3281 24.5648L16.7466 25.2344C16.0575 26.028 14.9029 26.2226 13.9917 25.6986L5.90547 21.0491C4.82164 20.4259 4.47528 19.0253 5.1437 17.9688Z" stroke="#A5BBD6"/>
<path d="M1.73516 29.3267L2.34903 24.6349C2.55425 23.0665 4.29935 22.2219 5.65672 23.0341L12.9205 27.3804C13.8085 27.9118 14.2055 28.9907 13.8738 29.971L13.1028 32.2489C12.7303 33.3495 11.5655 33.9699 10.4443 33.6651L3.33767 31.7326C2.27703 31.4441 1.59256 30.4165 1.73516 29.3267Z" stroke="#A5BBD6"/>
<path d="M2.77766 41.2635L1.65177 36.9153C1.22833 35.2799 2.73139 33.7981 4.36055 34.2449L10.9639 36.0554C11.8341 36.2941 12.4701 37.0404 12.5676 37.9375L12.6501 38.696C12.7629 39.7342 12.1296 40.7084 11.135 41.0267L5.5751 42.8059C4.37272 43.1906 3.0941 42.4857 2.77766 41.2635Z" stroke="#A5BBD6"/>
<path d="M7.47116 50.7282L5.5864 47.8456C4.81509 46.666 5.33785 45.0754 6.65861 44.5834L11.9481 42.6128C12.9508 42.2392 14.0769 42.6421 14.615 43.567L15.5731 45.2138C16.1379 46.1845 15.88 47.4249 14.975 48.09L10.6122 51.2964C9.59605 52.0432 8.16126 51.7836 7.47116 50.7282Z" stroke="#A5BBD6"/>
<path d="M15.5195 58.6057L12.3126 56.151C11.1696 55.276 11.1622 53.5567 12.2978 52.672L16.6695 49.2662C17.5145 48.6079 18.711 48.6546 19.5021 49.3769L20.9811 50.7273C21.7473 51.4268 21.9199 52.5668 21.3953 53.4618L18.7514 57.9719C18.0834 59.1114 16.5684 59.4085 15.5195 58.6057Z" stroke="#A5BBD6"/>
<path d="M27.7172 60.6339L23.5673 60.9385C21.8511 61.0644 20.6624 59.2585 21.4568 57.732L23.9307 52.9783C24.2328 52.3978 24.7778 51.9821 25.4175 51.8444L27.4221 51.4126C28.8505 51.1049 30.1758 52.2509 30.0777 53.7087L29.7492 58.5896C29.6756 59.6821 28.8092 60.5538 27.7172 60.6339Z" stroke="#A5BBD6"/>
<path d="M40.4418 51.446L37.4128 47.5729C36.998 47.0425 36.8493 46.3512 37.0092 45.6972L37.1401 45.1614C37.4464 43.9083 38.7611 43.1872 39.9825 43.6025L44.4954 45.1368C45.7972 45.5795 46.3775 47.0953 45.704 48.2941L44.0891 51.1686C43.3208 52.5363 41.4082 52.6817 40.4418 51.446Z" stroke="#A5BBD6"/>
<path d="M38.5912 56.8106L35.4273 58.5573C33.9399 59.3785 32.123 58.2735 32.1681 56.575L32.314 51.0787C32.3344 50.3111 32.7539 49.6098 33.4206 49.2288L33.6324 49.1078C34.6066 48.5511 35.8436 48.8176 36.5022 49.726L39.3084 53.5965C40.0835 54.6658 39.7474 56.1723 38.5912 56.8106Z" stroke="#A5BBD6"/>
<path d="M38.7524 40.0254L38.4676 37.8837C38.324 36.8041 38.9927 35.7823 40.0395 35.4816L44.2994 34.258C45.6573 33.868 47.0252 34.842 47.1008 36.2528L47.3425 40.7638C47.4226 42.259 46.0166 43.3948 44.5716 43.0022L40.3548 41.8566C39.5007 41.6246 38.8691 40.9028 38.7524 40.0254Z" stroke="#A5BBD6"/>
<path d="M43.1321 32.519L39.0308 33.9974C38.2619 34.2746 37.4028 34.1022 36.8004 33.55L36.1299 32.9353C35.2764 32.153 35.1763 30.8427 35.9009 29.9397L38.7919 26.3371C39.7141 25.188 41.4836 25.2539 42.3177 26.4685L44.1986 29.2073C45.0136 30.394 44.4865 32.0308 43.1321 32.519Z" stroke="#A5BBD6"/>
<path d="M29.554 22.1357H34.7829C36.6358 22.1357 37.6571 24.2876 36.4857 25.7231L33.5219 29.3547C33.1045 29.8662 32.4793 30.1629 31.8192 30.1629H29.9297C28.8034 30.1629 27.8595 29.3116 27.7436 28.1913L27.3679 24.5597C27.2338 23.2633 28.2508 22.1357 29.554 22.1357Z" stroke="#A5BBD6"/>
<path d="M25.0713 25.4801L25.6132 28.8035C25.7354 29.5532 25.426 30.308 24.8127 30.7562C24.1175 31.2642 23.1763 31.2748 22.4699 30.7824L19.9773 29.0451C18.7923 28.2192 18.7125 26.4943 19.8162 25.5626L21.4845 24.1544C22.7892 23.053 24.7966 23.795 25.0713 25.4801Z" stroke="#A5BBD6"/>
<path d="M18.7865 30.6146L21.2533 32.4823C22.0603 33.0933 22.3456 34.1765 21.9443 35.1058L21.8179 35.3985C21.3573 36.465 20.1463 36.989 19.0537 36.5944L16.3619 35.6223C15.2676 35.2272 14.6708 34.0476 15.0008 32.9319L15.3523 31.7435C15.788 30.2705 17.5619 29.6874 18.7865 30.6146Z" stroke="#A5BBD6"/>
<path d="M18.1274 38.1909L19.9437 38.7768C20.1704 38.8499 20.3786 38.9709 20.5544 39.1316C21.5775 40.0671 21.0717 41.7703 19.7038 41.9956L17.8207 42.3058C16.6775 42.4941 15.5945 41.7309 15.3872 40.5909C15.1002 39.0125 16.6006 37.6984 18.1274 38.1909Z" stroke="#A5BBD6"/>
<path d="M21.0159 43.6113L21.1673 43.5952C22.8161 43.4198 24.007 45.1363 23.2655 46.6193C22.6252 47.8999 20.9184 48.1769 19.906 47.1644L19.8199 47.0783L19.4871 47.4111L19.8199 47.0783C18.6171 45.8756 19.3284 43.8163 21.0159 43.6113Z" stroke="#A5BBD6"/>
<path d="M28.2246 45.1443L28.7223 47.0563C28.9685 48.0023 28.398 48.9679 27.4507 49.2088C26.1155 49.5482 24.9244 48.2936 25.3328 46.9778L25.9183 45.0909C25.9578 44.9639 26.018 44.8444 26.0967 44.7371C26.6943 43.9222 27.9701 44.1663 28.2246 45.1443Z" stroke="#A5BBD6"/>
<path d="M30.4322 45.5326L30.0758 44.1067C30.0151 43.8642 30.0151 43.6105 30.0758 43.3679C30.3535 42.2571 31.7116 41.8385 32.5665 42.6001L33.6639 43.5778C34.5564 44.373 34.5442 45.7722 33.6379 46.5516C32.523 47.5104 30.7889 46.9592 30.4322 45.5326Z" stroke="#A5BBD6"/>
<path d="M33.6314 41.1063L33.1328 40.823L32.8857 41.2577L33.1328 40.823C33.0298 40.7645 32.9334 40.6952 32.845 40.6163C31.8971 39.77 32.2011 38.2176 33.3982 37.7912L33.9385 37.5988C35.2689 37.1249 36.6427 38.1888 36.5168 39.5955C36.3912 40.9989 34.8565 41.8025 33.6314 41.1063Z" stroke="#A5BBD6"/>
<path d="M29.6698 34.2121L29.92 33.6095C30.4427 32.3502 32.0633 32.0024 33.0568 32.9362C34.0553 33.8748 33.7997 35.5235 32.5638 36.1157L31.9753 36.3977C31.4187 36.6644 30.7612 36.6086 30.2575 36.2518C29.6093 35.7926 29.3653 34.9458 29.6698 34.2121Z" stroke="#A5BBD6"/>
<path d="M24.7314 33.6781L25.115 33.3064C26.3578 32.1025 28.3714 33.4149 27.7716 35.0379C27.7101 35.2043 27.6218 35.3595 27.5102 35.4974L27.1741 35.9125C26.6451 36.5661 25.7106 36.7202 24.9997 36.2712C24.0916 35.6977 23.96 34.4254 24.7314 33.6781Z" stroke="#A5BBD6"/>
<path d="M26.7587 40.2643L26.7014 40.8091L27.1986 40.8615L26.7014 40.8091C26.6473 41.3224 26.3265 41.769 25.8573 41.9841C25.22 42.2762 24.465 42.0743 24.0585 41.5031L23.7409 41.0567C22.9346 39.9235 23.7876 38.3594 25.1768 38.4235C26.1355 38.4677 26.8592 39.3099 26.7587 40.2643Z" stroke="#A5BBD6"/>
<path d="M28.6566 40.6642L28.373 39.278C28.2048 38.4557 29.0342 37.7858 29.8027 38.1232C30.36 38.3679 30.5868 39.0384 30.2924 39.5711L29.608 40.8095C29.4384 41.1163 29.0179 41.1664 28.781 40.908C28.7182 40.8395 28.6752 40.7552 28.6566 40.6642Z" stroke="#A5BBD6"/>
<path d="M73.175 21.333H71.425L61.75 6.63301V21.333H60V3.85801H61.75L71.425 18.533V3.85801H73.175V21.333ZM76.3387 14.483C76.3387 13.083 76.6137 11.858 77.1637 10.808C77.7303 9.74134 78.5053 8.92467 79.4887 8.35801C80.4887 7.77467 81.6137 7.48301 82.8637 7.48301C84.1637 7.48301 85.2803 7.78301 86.2137 8.38301C87.1637 8.98301 87.847 9.74967 88.2637 10.683V7.68301H90.0137V21.333H88.2637V18.308C87.8303 19.2413 87.1387 20.0163 86.1887 20.633C85.2553 21.233 84.1387 21.533 82.8387 21.533C81.6053 21.533 80.4887 21.2413 79.4887 20.658C78.5053 20.0747 77.7303 19.2497 77.1637 18.183C76.6137 17.1163 76.3387 15.883 76.3387 14.483ZM88.2637 14.508C88.2637 13.408 88.0387 12.4413 87.5887 11.608C87.1387 10.7747 86.522 10.133 85.7387 9.68301C84.972 9.23301 84.122 9.00801 83.1887 9.00801C82.222 9.00801 81.3553 9.22467 80.5887 9.65801C79.822 10.0913 79.2137 10.7247 78.7637 11.558C78.3303 12.3747 78.1137 13.3497 78.1137 14.483C78.1137 15.5997 78.3303 16.583 78.7637 17.433C79.2137 18.2663 79.822 18.908 80.5887 19.358C81.3553 19.7913 82.222 20.008 83.1887 20.008C84.122 20.008 84.972 19.783 85.7387 19.333C86.522 18.883 87.1387 18.2413 87.5887 17.408C88.0387 16.5747 88.2637 15.608 88.2637 14.508ZM105.834 7.68301V21.333H104.084V18.933C103.684 19.783 103.067 20.433 102.234 20.883C101.4 21.333 100.467 21.558 99.4338 21.558C97.8005 21.558 96.4671 21.058 95.4338 20.058C94.4005 19.0413 93.8838 17.5747 93.8838 15.658V7.68301H95.6088V15.458C95.6088 16.9413 95.9755 18.0747 96.7088 18.858C97.4588 19.6413 98.4755 20.033 99.7588 20.033C101.075 20.033 102.125 19.6163 102.909 18.783C103.692 17.9497 104.084 16.7247 104.084 15.108V7.68301H105.834ZM112.104 9.15801V17.633C112.104 18.4663 112.262 19.0413 112.579 19.358C112.896 19.6747 113.454 19.833 114.254 19.833H115.854V21.333H113.979C112.746 21.333 111.829 21.0497 111.229 20.483C110.629 19.8997 110.329 18.9497 110.329 17.633V9.15801H108.429V7.68301H110.329V4.25801H112.104V7.68301H115.854V9.15801H112.104ZM119.615 5.10801C119.265 5.10801 118.965 4.98301 118.715 4.73301C118.465 4.48301 118.34 4.17467 118.34 3.80801C118.34 3.44134 118.465 3.14134 118.715 2.90801C118.965 2.65801 119.265 2.53301 119.615 2.53301C119.965 2.53301 120.265 2.65801 120.515 2.90801C120.765 3.14134 120.89 3.44134 120.89 3.80801C120.89 4.17467 120.765 4.48301 120.515 4.73301C120.265 4.98301 119.965 5.10801 119.615 5.10801ZM120.49 7.68301V21.333H118.74V7.68301H120.49ZM126.203 2.83301V21.333H124.453V2.83301H126.203ZM141.991 7.68301V21.333H140.241V18.933C139.841 19.783 139.224 20.433 138.391 20.883C137.558 21.333 136.624 21.558 135.591 21.558C133.958 21.558 132.624 21.058 131.591 20.058C130.558 19.0413 130.041 17.5747 130.041 15.658V7.68301H131.766V15.458C131.766 16.9413 132.133 18.0747 132.866 18.858C133.616 19.6413 134.633 20.033 135.916 20.033C137.233 20.033 138.283 19.6163 139.066 18.783C139.849 17.9497 140.241 16.7247 140.241 15.108V7.68301H141.991ZM150.686 21.533C149.12 21.533 147.836 21.1747 146.836 20.458C145.853 19.7247 145.303 18.733 145.186 17.483H146.986C147.07 18.2497 147.428 18.8747 148.061 19.358C148.711 19.8247 149.578 20.058 150.661 20.058C151.611 20.058 152.353 19.833 152.886 19.383C153.436 18.933 153.711 18.3747 153.711 17.708C153.711 17.2413 153.561 16.858 153.261 16.558C152.961 16.258 152.578 16.0247 152.111 15.858C151.661 15.6747 151.045 15.483 150.261 15.283C149.245 15.0163 148.42 14.7497 147.786 14.483C147.153 14.2163 146.611 13.8247 146.161 13.308C145.728 12.7747 145.511 12.0663 145.511 11.183C145.511 10.5163 145.711 9.89967 146.111 9.33301C146.511 8.76634 147.078 8.31634 147.811 7.98301C148.545 7.64967 149.378 7.48301 150.311 7.48301C151.778 7.48301 152.961 7.85801 153.861 8.60801C154.761 9.34134 155.245 10.358 155.311 11.658H153.561C153.511 10.858 153.195 10.2163 152.611 9.73301C152.045 9.23301 151.261 8.98301 150.261 8.98301C149.378 8.98301 148.661 9.19134 148.111 9.60801C147.561 10.0247 147.286 10.5413 147.286 11.158C147.286 11.6913 147.445 12.133 147.761 12.483C148.095 12.8163 148.503 13.083 148.986 13.283C149.47 13.4663 150.12 13.6747 150.936 13.908C151.92 14.1747 152.703 14.433 153.286 14.683C153.87 14.933 154.37 15.2997 154.786 15.783C155.203 16.2663 155.42 16.908 155.436 17.708C155.436 18.4413 155.236 19.0997 154.836 19.683C154.436 20.2497 153.878 20.6997 153.161 21.033C152.445 21.3663 151.62 21.533 150.686 21.533Z" fill="#4E5D70"/>
<path d="M67.156 37.053V45.333H66.316V38.721L63.364 45.333H62.752L59.8 38.745V45.333H58.96V37.053H59.848L63.052 44.229L66.256 37.053H67.156ZM68.6776 42.045C68.6776 41.373 68.8096 40.785 69.0736 40.281C69.3456 39.769 69.7176 39.377 70.1896 39.105C70.6696 38.825 71.2096 38.685 71.8096 38.685C72.4336 38.685 72.9696 38.829 73.4176 39.117C73.8736 39.405 74.2016 39.773 74.4016 40.221V38.781H75.2416V45.333H74.4016V43.881C74.1936 44.329 73.8616 44.701 73.4056 44.997C72.9576 45.285 72.4216 45.429 71.7976 45.429C71.2056 45.429 70.6696 45.289 70.1896 45.009C69.7176 44.729 69.3456 44.333 69.0736 43.821C68.8096 43.309 68.6776 42.717 68.6776 42.045ZM74.4016 42.057C74.4016 41.529 74.2936 41.065 74.0776 40.665C73.8616 40.265 73.5656 39.957 73.1896 39.741C72.8216 39.525 72.4136 39.417 71.9656 39.417C71.5016 39.417 71.0856 39.521 70.7176 39.729C70.3496 39.937 70.0576 40.241 69.8416 40.641C69.6336 41.033 69.5296 41.501 69.5296 42.045C69.5296 42.581 69.6336 43.053 69.8416 43.461C70.0576 43.861 70.3496 44.169 70.7176 44.385C71.0856 44.593 71.5016 44.697 71.9656 44.697C72.4136 44.697 72.8216 44.589 73.1896 44.373C73.5656 44.157 73.8616 43.849 74.0776 43.449C74.2936 43.049 74.4016 42.585 74.4016 42.057ZM80.2312 38.661C81.0152 38.661 81.6552 38.905 82.1512 39.393C82.6472 39.873 82.8952 40.573 82.8952 41.493V45.333H82.0672V41.589C82.0672 40.877 81.8872 40.333 81.5272 39.957C81.1752 39.581 80.6912 39.393 80.0752 39.393C79.4432 39.393 78.9392 39.593 78.5632 39.993C78.1872 40.393 77.9992 40.981 77.9992 41.757V45.333H77.1592V38.781H77.9992V39.897C78.2072 39.497 78.5072 39.193 78.8992 38.985C79.2912 38.769 79.7352 38.661 80.2312 38.661ZM84.369 42.045C84.369 41.373 84.501 40.785 84.765 40.281C85.037 39.769 85.409 39.377 85.881 39.105C86.361 38.825 86.901 38.685 87.501 38.685C88.125 38.685 88.661 38.829 89.109 39.117C89.565 39.405 89.893 39.773 90.093 40.221V38.781H90.933V45.333H90.093V43.881C89.885 44.329 89.553 44.701 89.097 44.997C88.649 45.285 88.113 45.429 87.489 45.429C86.897 45.429 86.361 45.289 85.881 45.009C85.409 44.729 85.037 44.333 84.765 43.821C84.501 43.309 84.369 42.717 84.369 42.045ZM90.093 42.057C90.093 41.529 89.985 41.065 89.769 40.665C89.553 40.265 89.257 39.957 88.881 39.741C88.513 39.525 88.105 39.417 87.657 39.417C87.193 39.417 86.777 39.521 86.409 39.729C86.041 39.937 85.749 40.241 85.533 40.641C85.325 41.033 85.221 41.501 85.221 42.045C85.221 42.581 85.325 43.053 85.533 43.461C85.749 43.861 86.041 44.169 86.409 44.385C86.777 44.593 87.193 44.697 87.657 44.697C88.105 44.697 88.513 44.589 88.881 44.373C89.257 44.157 89.553 43.849 89.769 43.449C89.985 43.049 90.093 42.585 90.093 42.057ZM95.5986 38.685C96.2146 38.685 96.7506 38.829 97.2066 39.117C97.6626 39.405 97.9906 39.769 98.1906 40.209V38.781H99.0306V45.501C99.0306 46.101 98.8986 46.633 98.6346 47.097C98.3786 47.561 98.0186 47.917 97.5546 48.165C97.0906 48.421 96.5626 48.549 95.9706 48.549C95.1306 48.549 94.4306 48.349 93.8706 47.949C93.3186 47.549 92.9746 47.005 92.8386 46.317H93.6666C93.8106 46.773 94.0826 47.137 94.4826 47.409C94.8906 47.681 95.3866 47.817 95.9706 47.817C96.3946 47.817 96.7746 47.725 97.1106 47.541C97.4466 47.365 97.7106 47.101 97.9026 46.749C98.0946 46.397 98.1906 45.981 98.1906 45.501V43.881C97.9826 44.329 97.6506 44.701 97.1946 44.997C96.7466 45.285 96.2146 45.429 95.5986 45.429C94.9986 45.429 94.4586 45.289 93.9786 45.009C93.5066 44.729 93.1346 44.333 92.8626 43.821C92.5986 43.309 92.4666 42.717 92.4666 42.045C92.4666 41.373 92.5986 40.785 92.8626 40.281C93.1346 39.769 93.5066 39.377 93.9786 39.105C94.4586 38.825 94.9986 38.685 95.5986 38.685ZM98.1906 42.057C98.1906 41.529 98.0826 41.065 97.8666 40.665C97.6506 40.265 97.3546 39.957 96.9786 39.741C96.6106 39.525 96.2026 39.417 95.7546 39.417C95.2906 39.417 94.8746 39.521 94.5066 39.729C94.1386 39.937 93.8466 40.241 93.6306 40.641C93.4226 41.033 93.3186 41.501 93.3186 42.045C93.3186 42.581 93.4226 43.053 93.6306 43.461C93.8466 43.861 94.1386 44.169 94.5066 44.385C94.8746 44.593 95.2906 44.697 95.7546 44.697C96.2026 44.697 96.6106 44.589 96.9786 44.373C97.3546 44.157 97.6506 43.849 97.8666 43.449C98.0826 43.049 98.1906 42.585 98.1906 42.057ZM106.876 41.721C106.876 42.009 106.868 42.229 106.852 42.381H101.416C101.44 42.877 101.56 43.301 101.776 43.653C101.992 44.005 102.276 44.273 102.628 44.457C102.98 44.633 103.364 44.721 103.78 44.721C104.324 44.721 104.78 44.589 105.148 44.325C105.524 44.061 105.772 43.705 105.892 43.257H106.78C106.62 43.897 106.276 44.421 105.748 44.829C105.228 45.229 104.572 45.429 103.78 45.429C103.164 45.429 102.612 45.293 102.124 45.021C101.636 44.741 101.252 44.349 100.972 43.845C100.7 43.333 100.564 42.737 100.564 42.057C100.564 41.377 100.7 40.781 100.972 40.269C101.244 39.757 101.624 39.365 102.112 39.093C102.6 38.821 103.156 38.685 103.78 38.685C104.404 38.685 104.948 38.821 105.412 39.093C105.884 39.365 106.244 39.733 106.492 40.197C106.748 40.653 106.876 41.161 106.876 41.721ZM106.024 41.697C106.032 41.209 105.932 40.793 105.724 40.449C105.524 40.105 105.248 39.845 104.896 39.669C104.544 39.493 104.16 39.405 103.744 39.405C103.12 39.405 102.588 39.605 102.148 40.005C101.708 40.405 101.464 40.969 101.416 41.697H106.024ZM116.213 38.661C116.981 38.661 117.605 38.905 118.085 39.393C118.573 39.873 118.817 40.573 118.817 41.493V45.333H117.989V41.589C117.989 40.877 117.817 40.333 117.473 39.957C117.129 39.581 116.661 39.393 116.069 39.393C115.453 39.393 114.961 39.597 114.593 40.005C114.225 40.413 114.041 41.005 114.041 41.781V45.333H113.213V41.589C113.213 40.877 113.041 40.333 112.697 39.957C112.353 39.581 111.881 39.393 111.281 39.393C110.665 39.393 110.173 39.597 109.805 40.005C109.437 40.413 109.253 41.005 109.253 41.781V45.333H108.413V38.781H109.253V39.909C109.461 39.501 109.757 39.193 110.141 38.985C110.525 38.769 110.953 38.661 111.425 38.661C111.993 38.661 112.489 38.797 112.913 39.069C113.345 39.341 113.657 39.741 113.849 40.269C114.025 39.749 114.325 39.353 114.749 39.081C115.181 38.801 115.669 38.661 116.213 38.661ZM126.611 41.721C126.611 42.009 126.603 42.229 126.587 42.381H121.151C121.175 42.877 121.295 43.301 121.511 43.653C121.727 44.005 122.011 44.273 122.363 44.457C122.715 44.633 123.099 44.721 123.515 44.721C124.059 44.721 124.515 44.589 124.883 44.325C125.259 44.061 125.507 43.705 125.627 43.257H126.515C126.355 43.897 126.011 44.421 125.483 44.829C124.963 45.229 124.307 45.429 123.515 45.429C122.899 45.429 122.347 45.293 121.859 45.021C121.371 44.741 120.987 44.349 120.707 43.845C120.435 43.333 120.299 42.737 120.299 42.057C120.299 41.377 120.435 40.781 120.707 40.269C120.979 39.757 121.359 39.365 121.847 39.093C122.335 38.821 122.891 38.685 123.515 38.685C124.139 38.685 124.683 38.821 125.147 39.093C125.619 39.365 125.979 39.733 126.227 40.197C126.483 40.653 126.611 41.161 126.611 41.721ZM125.759 41.697C125.767 41.209 125.667 40.793 125.459 40.449C125.259 40.105 124.983 39.845 124.631 39.669C124.279 39.493 123.895 39.405 123.479 39.405C122.855 39.405 122.323 39.605 121.883 40.005C121.443 40.405 121.199 40.969 121.151 41.697H125.759ZM131.22 38.661C132.004 38.661 132.644 38.905 133.14 39.393C133.636 39.873 133.884 40.573 133.884 41.493V45.333H133.056V41.589C133.056 40.877 132.876 40.333 132.516 39.957C132.164 39.581 131.68 39.393 131.064 39.393C130.432 39.393 129.928 39.593 129.552 39.993C129.176 40.393 128.988 40.981 128.988 41.757V45.333H128.148V38.781H128.988V39.897C129.196 39.497 129.496 39.193 129.888 38.985C130.28 38.769 130.724 38.661 131.22 38.661ZM136.833 39.489V43.557C136.833 43.957 136.909 44.233 137.061 44.385C137.213 44.537 137.481 44.613 137.865 44.613H138.633V45.333H137.733C137.141 45.333 136.701 45.197 136.413 44.925C136.125 44.645 135.981 44.189 135.981 43.557V39.489H135.069V38.781H135.981V37.137H136.833V38.781H138.633V39.489H136.833Z" fill="#4E5D70"/>
<path d="M64.324 55.357C64.324 56.077 64.088 56.657 63.616 57.097C63.144 57.537 62.436 57.757 61.492 57.757H59.8V61.333H58.96V52.945H61.492C62.428 52.945 63.132 53.165 63.604 53.605C64.084 54.045 64.324 54.629 64.324 55.357ZM61.492 57.037C62.804 57.037 63.46 56.477 63.46 55.357C63.46 54.797 63.304 54.373 62.992 54.085C62.68 53.797 62.18 53.653 61.492 53.653H59.8V57.037H61.492ZM66.5734 52.453V61.333H65.7334V52.453H66.5734ZM68.0916 58.045C68.0916 57.373 68.2236 56.785 68.4876 56.281C68.7596 55.769 69.1316 55.377 69.6036 55.105C70.0836 54.825 70.6236 54.685 71.2236 54.685C71.8476 54.685 72.3836 54.829 72.8316 55.117C73.2876 55.405 73.6156 55.773 73.8156 56.221V54.781H74.6556V61.333H73.8156V59.881C73.6076 60.329 73.2756 60.701 72.8196 60.997C72.3716 61.285 71.8356 61.429 71.2116 61.429C70.6196 61.429 70.0836 61.289 69.6036 61.009C69.1316 60.729 68.7596 60.333 68.4876 59.821C68.2236 59.309 68.0916 58.717 68.0916 58.045ZM73.8156 58.057C73.8156 57.529 73.7076 57.065 73.4916 56.665C73.2756 56.265 72.9796 55.957 72.6036 55.741C72.2356 55.525 71.8276 55.417 71.3796 55.417C70.9156 55.417 70.4996 55.521 70.1316 55.729C69.7636 55.937 69.4716 56.241 69.2556 56.641C69.0476 57.033 68.9436 57.501 68.9436 58.045C68.9436 58.581 69.0476 59.053 69.2556 59.461C69.4716 59.861 69.7636 60.169 70.1316 60.385C70.4996 60.593 70.9156 60.697 71.3796 60.697C71.8276 60.697 72.2356 60.589 72.6036 60.373C72.9796 60.157 73.2756 59.849 73.4916 59.449C73.7076 59.049 73.8156 58.585 73.8156 58.057ZM77.6653 55.489V59.557C77.6653 59.957 77.7413 60.233 77.8933 60.385C78.0453 60.537 78.3133 60.613 78.6973 60.613H79.4653V61.333H78.5653C77.9733 61.333 77.5333 61.197 77.2453 60.925C76.9573 60.645 76.8133 60.189 76.8133 59.557V55.489H75.9013V54.781H76.8133V53.137H77.6653V54.781H79.4653V55.489H77.6653ZM83.4306 55.489H81.9066V61.333H81.0666V55.489H80.1546V54.781H81.0666V54.325C81.0666 53.613 81.2466 53.089 81.6066 52.753C81.9746 52.417 82.5666 52.249 83.3826 52.249V52.969C82.8386 52.969 82.4546 53.073 82.2306 53.281C82.0146 53.489 81.9066 53.837 81.9066 54.325V54.781H83.4306V55.489ZM87.621 61.429C87.005 61.429 86.449 61.293 85.953 61.021C85.465 60.741 85.077 60.349 84.789 59.845C84.509 59.333 84.369 58.737 84.369 58.057C84.369 57.377 84.513 56.785 84.801 56.281C85.089 55.769 85.481 55.377 85.977 55.105C86.473 54.825 87.029 54.685 87.645 54.685C88.261 54.685 88.817 54.825 89.313 55.105C89.817 55.377 90.209 55.769 90.489 56.281C90.777 56.785 90.921 57.377 90.921 58.057C90.921 58.729 90.777 59.321 90.489 59.833C90.201 60.345 89.805 60.741 89.301 61.021C88.797 61.293 88.237 61.429 87.621 61.429ZM87.621 60.697C88.053 60.697 88.453 60.601 88.821 60.409C89.189 60.209 89.485 59.913 89.709 59.521C89.941 59.121 90.057 58.633 90.057 58.057C90.057 57.481 89.945 56.997 89.721 56.605C89.497 56.205 89.201 55.909 88.833 55.717C88.465 55.517 88.065 55.417 87.633 55.417C87.201 55.417 86.801 55.517 86.433 55.717C86.065 55.909 85.769 56.205 85.545 56.605C85.329 56.997 85.221 57.481 85.221 58.057C85.221 58.633 85.329 59.121 85.545 59.521C85.769 59.913 86.061 60.209 86.421 60.409C86.789 60.601 87.189 60.697 87.621 60.697ZM93.2922 55.945C93.4762 55.537 93.7562 55.221 94.1322 54.997C94.5162 54.773 94.9842 54.661 95.5362 54.661V55.537H95.3082C94.7002 55.537 94.2122 55.701 93.8442 56.029C93.4762 56.357 93.2922 56.905 93.2922 57.673V61.333H92.4522V54.781H93.2922V55.945ZM104.6 54.661C105.368 54.661 105.992 54.905 106.472 55.393C106.96 55.873 107.204 56.573 107.204 57.493V61.333H106.376V57.589C106.376 56.877 106.204 56.333 105.86 55.957C105.516 55.581 105.048 55.393 104.456 55.393C103.84 55.393 103.348 55.597 102.98 56.005C102.612 56.413 102.428 57.005 102.428 57.781V61.333H101.6V57.589C101.6 56.877 101.428 56.333 101.084 55.957C100.74 55.581 100.268 55.393 99.6678 55.393C99.0518 55.393 98.5598 55.597 98.1918 56.005C97.8238 56.413 97.6398 57.005 97.6398 57.781V61.333H96.7998V54.781H97.6398V55.909C97.8478 55.501 98.1438 55.193 98.5278 54.985C98.9118 54.769 99.3398 54.661 99.8118 54.661C100.38 54.661 100.876 54.797 101.3 55.069C101.732 55.341 102.044 55.741 102.236 56.269C102.412 55.749 102.712 55.353 103.136 55.081C103.568 54.801 104.056 54.661 104.6 54.661Z" fill="#4E5D70"/>
</g>
<defs>
<clipPath id="clip0_419_5288">
<rect width="231" height="64" fill="white"/>
</clipPath>
</defs>
</svg>
