<svg width="231" height="64" viewBox="0 0 231 64" fill="none" xmlns="http://www.w3.org/2000/svg">
<g clip-path="url(#clip0_337_5325)">
<path d="M26.2451 18.071L25.203 4.67163C25.1064 3.43034 26.0593 2.35678 27.3033 2.30531L35.5232 1.96517C37.0874 1.90045 38.2157 3.44538 37.6782 4.91572L32.6552 18.6552C32.3383 19.5219 31.5138 20.0983 30.591 20.0983H28.4363C27.2886 20.0983 26.3341 19.2152 26.2451 18.071Z" stroke="#8EB1DE"/>
<path d="M13.4704 8.23146L19.7401 4.38538C21.1207 3.53846 22.9119 4.42505 23.0758 6.0364L24.3272 18.3414C24.4169 19.2238 23.9674 20.0738 23.1874 20.4962L21.9255 21.1798C20.9358 21.7159 19.701 21.4176 19.0652 20.4888L12.8061 11.3464C12.096 10.3092 12.399 8.88875 13.4704 8.23146Z" stroke="#8EB1DE"/>
<path d="M5.1437 17.9685L7.91445 13.589C8.75169 12.2656 10.665 12.2175 11.5676 13.4971L17.4647 21.8566C18.0477 22.6831 17.9914 23.8008 17.3281 24.5645L16.7466 25.2342C16.0575 26.0278 14.9029 26.2223 13.9917 25.6984L5.90547 21.0488C4.82164 20.4256 4.47528 19.0251 5.1437 17.9685Z" stroke="#8EB1DE"/>
<path d="M1.73516 29.3267L2.34903 24.6349C2.55425 23.0665 4.29935 22.2219 5.65672 23.0341L12.9205 27.3804C13.8085 27.9118 14.2055 28.9907 13.8738 29.971L13.1028 32.2489C12.7303 33.3495 11.5655 33.9699 10.4443 33.6651L3.33767 31.7326C2.27703 31.4441 1.59256 30.4165 1.73516 29.3267Z" stroke="#8EB1DE"/>
<path d="M2.77766 41.2635L1.65177 36.9153C1.22833 35.2799 2.73139 33.7981 4.36055 34.2449L10.9639 36.0554C11.8341 36.2941 12.4701 37.0404 12.5676 37.9375L12.6501 38.696C12.7629 39.7342 12.1296 40.7084 11.135 41.0267L5.5751 42.8059C4.37272 43.1906 3.0941 42.4857 2.77766 41.2635Z" stroke="#8EB1DE"/>
<path d="M7.47116 50.7282L5.5864 47.8456C4.81509 46.666 5.33785 45.0754 6.65861 44.5834L11.9481 42.6128C12.9508 42.2392 14.0769 42.6421 14.615 43.567L15.5731 45.2138C16.1379 46.1845 15.88 47.4249 14.975 48.09L10.6122 51.2964C9.59605 52.0432 8.16126 51.7836 7.47116 50.7282Z" stroke="#8EB1DE"/>
<path d="M15.5195 58.6054L12.3126 56.1507C11.1696 55.2758 11.1622 53.5565 12.2978 52.6718L16.6695 49.2659C17.5145 48.6076 18.711 48.6544 19.5021 49.3766L20.9811 50.7271C21.7473 51.4266 21.9199 52.5666 21.3953 53.4616L18.7514 57.9717C18.0834 59.1111 16.5684 59.4082 15.5195 58.6054Z" stroke="#8EB1DE"/>
<path d="M27.7172 60.6341L23.5673 60.9387C21.8511 61.0647 20.6624 59.2587 21.4568 57.7323L23.9307 52.9785C24.2328 52.3981 24.7778 51.9824 25.4175 51.8446L27.4221 51.4128C28.8505 51.1052 30.1758 52.2511 30.0777 53.7089L29.7492 58.5899C29.6756 59.6823 28.8092 60.554 27.7172 60.6341Z" stroke="#8EB1DE"/>
<path d="M40.4418 51.446L37.4128 47.5729C36.998 47.0425 36.8493 46.3512 37.0092 45.6972L37.1401 45.1614C37.4464 43.9083 38.7611 43.1872 39.9825 43.6025L44.4954 45.1368C45.7972 45.5795 46.3775 47.0953 45.704 48.2941L44.0891 51.1686C43.3208 52.5363 41.4082 52.6817 40.4418 51.446Z" stroke="#8EB1DE"/>
<path d="M38.5912 56.8104L35.4273 58.5571C33.9399 59.3783 32.123 58.2732 32.1681 56.5747L32.314 51.0784C32.3344 50.3108 32.7539 49.6095 33.4206 49.2286L33.6324 49.1075C34.6066 48.5509 35.8436 48.8174 36.5022 49.7257L39.3084 53.5963C40.0835 54.6655 39.7474 56.1721 38.5912 56.8104Z" stroke="#8EB1DE"/>
<path d="M38.7524 40.0257L38.4676 37.8839C38.324 36.8044 38.9927 35.7825 40.0395 35.4819L44.2994 34.2582C45.6573 33.8682 47.0252 34.8423 47.1008 36.253L47.3425 40.764C47.4226 42.2593 46.0166 43.3951 44.5716 43.0025L40.3548 41.8569C39.5007 41.6248 38.8691 40.9031 38.7524 40.0257Z" stroke="#8EB1DE"/>
<path d="M43.1321 32.519L39.0308 33.9974C38.2619 34.2746 37.4028 34.1022 36.8004 33.55L36.1299 32.9353C35.2764 32.153 35.1763 30.8427 35.9009 29.9397L38.7919 26.3371C39.7141 25.188 41.4836 25.2539 42.3177 26.4685L44.1986 29.2073C45.0136 30.394 44.4865 32.0308 43.1321 32.519Z" stroke="#8EB1DE"/>
<path d="M29.554 22.136H34.7829C36.6358 22.136 37.6571 24.2879 36.4857 25.7234L33.5219 29.355C33.1045 29.8664 32.4793 30.1632 31.8192 30.1632H29.9297C28.8034 30.1632 27.8595 29.3118 27.7436 28.1915L27.3679 24.5599C27.2338 23.2636 28.2508 22.136 29.554 22.136Z" stroke="#8EB1DE"/>
<path d="M25.0713 25.4801L25.6132 28.8035C25.7354 29.5532 25.426 30.308 24.8127 30.7562C24.1175 31.2642 23.1763 31.2748 22.4699 30.7824L19.9773 29.0451C18.7923 28.2192 18.7125 26.4943 19.8162 25.5626L21.4845 24.1544C22.7892 23.053 24.7966 23.795 25.0713 25.4801Z" stroke="#8EB1DE"/>
<path d="M18.7865 30.6146L21.2533 32.4823C22.0603 33.0933 22.3456 34.1765 21.9443 35.1058L21.8179 35.3985C21.3573 36.465 20.1463 36.989 19.0537 36.5944L16.3619 35.6223C15.2676 35.2272 14.6708 34.0476 15.0008 32.9319L15.3523 31.7435C15.788 30.2705 17.5619 29.6874 18.7865 30.6146Z" stroke="#8EB1DE"/>
<path d="M18.1274 38.1907L19.9437 38.7766C20.1704 38.8497 20.3786 38.9707 20.5544 39.1314C21.5775 40.0668 21.0717 41.7701 19.7038 41.9954L17.8207 42.3055C16.6775 42.4938 15.5945 41.7306 15.3872 40.5907C15.1002 39.0122 16.6006 37.6981 18.1274 38.1907Z" stroke="#8EB1DE"/>
<path d="M21.0159 43.6113L21.1673 43.5952C22.8161 43.4198 24.007 45.1363 23.2655 46.6193C22.6252 47.8999 20.9184 48.1769 19.906 47.1644L19.8199 47.0783L19.4871 47.4111L19.8199 47.0783C18.6171 45.8756 19.3284 43.8163 21.0159 43.6113Z" stroke="#8EB1DE"/>
<path d="M28.2246 45.1443L28.7223 47.0563C28.9685 48.0023 28.398 48.9679 27.4507 49.2088C26.1155 49.5482 24.9244 48.2936 25.3328 46.9778L25.9183 45.0909C25.9578 44.9639 26.018 44.8444 26.0967 44.7371C26.6943 43.9222 27.9701 44.1663 28.2246 45.1443Z" stroke="#8EB1DE"/>
<path d="M30.4322 45.5324L30.0758 44.1065C30.0151 43.864 30.0151 43.6102 30.0758 43.3677C30.3535 42.2569 31.7116 41.8382 32.5665 42.5999L33.6639 43.5776C34.5564 44.3727 34.5442 45.772 33.6379 46.5514C32.523 47.5102 30.7889 46.9589 30.4322 45.5324Z" stroke="#8EB1DE"/>
<path d="M33.6314 41.1061L33.1328 40.8227L32.8857 41.2574L33.1328 40.8227C33.0298 40.7642 32.9334 40.6949 32.845 40.6161C31.8971 39.7697 32.2011 38.2173 33.3982 37.791L33.9385 37.5985C35.2689 37.1247 36.6427 38.1886 36.5168 39.5952C36.3912 40.9986 34.8565 41.8023 33.6314 41.1061Z" stroke="#8EB1DE"/>
<path d="M29.6698 34.2119L29.92 33.6092C30.4427 32.35 32.0633 32.0021 33.0568 32.936C34.0553 33.8746 33.7997 35.5233 32.5638 36.1155L31.9753 36.3975C31.4187 36.6642 30.7612 36.6084 30.2575 36.2516C29.6093 35.7924 29.3653 34.9456 29.6698 34.2119Z" stroke="#8EB1DE"/>
<path d="M24.7314 33.6781L25.115 33.3064C26.3578 32.1025 28.3714 33.4149 27.7716 35.0379C27.7101 35.2043 27.6218 35.3595 27.5102 35.4974L27.1741 35.9125C26.6451 36.5661 25.7106 36.7202 24.9997 36.2712C24.0916 35.6977 23.96 34.4254 24.7314 33.6781Z" stroke="#8EB1DE"/>
<path d="M26.7587 40.2643L26.7014 40.8091L27.1986 40.8615L26.7014 40.8091C26.6473 41.3224 26.3265 41.769 25.8573 41.9841C25.22 42.2762 24.465 42.0743 24.0585 41.5031L23.7409 41.0567C22.9346 39.9235 23.7876 38.3594 25.1768 38.4235C26.1355 38.4677 26.8592 39.3099 26.7587 40.2643Z" stroke="#8EB1DE"/>
<path d="M28.6566 40.6644L28.373 39.2783C28.2048 38.4559 29.0342 37.7861 29.8027 38.1235C30.36 38.3682 30.5868 39.0387 30.2924 39.5714L29.608 40.8097C29.4384 41.1166 29.0179 41.1666 28.781 40.9082C28.7182 40.8397 28.6752 40.7554 28.6566 40.6644Z" stroke="#8EB1DE"/>
<path d="M73.175 21.3333H71.425L61.75 6.63325V21.3333H60V3.85825H61.75L71.425 18.5333V3.85825H73.175V21.3333ZM76.3387 14.4833C76.3387 13.0833 76.6137 11.8583 77.1637 10.8083C77.7303 9.74158 78.5053 8.92492 79.4887 8.35825C80.4887 7.77492 81.6137 7.48325 82.8637 7.48325C84.1637 7.48325 85.2803 7.78325 86.2137 8.38325C87.1637 8.98325 87.847 9.74992 88.2637 10.6833V7.68325H90.0137V21.3333H88.2637V18.3083C87.8303 19.2416 87.1387 20.0166 86.1887 20.6333C85.2553 21.2333 84.1387 21.5333 82.8387 21.5333C81.6053 21.5333 80.4887 21.2416 79.4887 20.6583C78.5053 20.0749 77.7303 19.2499 77.1637 18.1833C76.6137 17.1166 76.3387 15.8833 76.3387 14.4833ZM88.2637 14.5083C88.2637 13.4083 88.0387 12.4416 87.5887 11.6083C87.1387 10.7749 86.522 10.1333 85.7387 9.68325C84.972 9.23325 84.122 9.00825 83.1887 9.00825C82.222 9.00825 81.3553 9.22492 80.5887 9.65825C79.822 10.0916 79.2137 10.7249 78.7637 11.5583C78.3303 12.3749 78.1137 13.3499 78.1137 14.4833C78.1137 15.5999 78.3303 16.5833 78.7637 17.4333C79.2137 18.2666 79.822 18.9083 80.5887 19.3583C81.3553 19.7916 82.222 20.0083 83.1887 20.0083C84.122 20.0083 84.972 19.7833 85.7387 19.3333C86.522 18.8833 87.1387 18.2416 87.5887 17.4083C88.0387 16.5749 88.2637 15.6083 88.2637 14.5083ZM105.834 7.68325V21.3333H104.084V18.9333C103.684 19.7833 103.067 20.4333 102.234 20.8833C101.4 21.3333 100.467 21.5583 99.4338 21.5583C97.8005 21.5583 96.4671 21.0583 95.4338 20.0583C94.4005 19.0416 93.8838 17.5749 93.8838 15.6583V7.68325H95.6088V15.4583C95.6088 16.9416 95.9755 18.0749 96.7088 18.8583C97.4588 19.6416 98.4755 20.0333 99.7588 20.0333C101.075 20.0333 102.125 19.6166 102.909 18.7833C103.692 17.9499 104.084 16.7249 104.084 15.1083V7.68325H105.834ZM112.104 9.15825V17.6333C112.104 18.4666 112.262 19.0416 112.579 19.3583C112.896 19.6749 113.454 19.8333 114.254 19.8333H115.854V21.3333H113.979C112.746 21.3333 111.829 21.0499 111.229 20.4833C110.629 19.8999 110.329 18.9499 110.329 17.6333V9.15825H108.429V7.68325H110.329V4.25825H112.104V7.68325H115.854V9.15825H112.104ZM119.615 5.10825C119.265 5.10825 118.965 4.98325 118.715 4.73325C118.465 4.48325 118.34 4.17492 118.34 3.80825C118.34 3.44158 118.465 3.14158 118.715 2.90825C118.965 2.65825 119.265 2.53325 119.615 2.53325C119.965 2.53325 120.265 2.65825 120.515 2.90825C120.765 3.14158 120.89 3.44158 120.89 3.80825C120.89 4.17492 120.765 4.48325 120.515 4.73325C120.265 4.98325 119.965 5.10825 119.615 5.10825ZM120.49 7.68325V21.3333H118.74V7.68325H120.49ZM126.203 2.83325V21.3333H124.453V2.83325H126.203ZM141.991 7.68325V21.3333H140.241V18.9333C139.841 19.7833 139.224 20.4333 138.391 20.8833C137.558 21.3333 136.624 21.5583 135.591 21.5583C133.958 21.5583 132.624 21.0583 131.591 20.0583C130.558 19.0416 130.041 17.5749 130.041 15.6583V7.68325H131.766V15.4583C131.766 16.9416 132.133 18.0749 132.866 18.8583C133.616 19.6416 134.633 20.0333 135.916 20.0333C137.233 20.0333 138.283 19.6166 139.066 18.7833C139.849 17.9499 140.241 16.7249 140.241 15.1083V7.68325H141.991ZM150.686 21.5333C149.12 21.5333 147.836 21.1749 146.836 20.4583C145.853 19.7249 145.303 18.7333 145.186 17.4833H146.986C147.07 18.2499 147.428 18.8749 148.061 19.3583C148.711 19.8249 149.578 20.0583 150.661 20.0583C151.611 20.0583 152.353 19.8333 152.886 19.3833C153.436 18.9333 153.711 18.3749 153.711 17.7083C153.711 17.2416 153.561 16.8583 153.261 16.5583C152.961 16.2583 152.578 16.0249 152.111 15.8583C151.661 15.6749 151.045 15.4833 150.261 15.2833C149.245 15.0166 148.42 14.7499 147.786 14.4833C147.153 14.2166 146.611 13.8249 146.161 13.3083C145.728 12.7749 145.511 12.0666 145.511 11.1833C145.511 10.5166 145.711 9.89992 146.111 9.33325C146.511 8.76659 147.078 8.31658 147.811 7.98325C148.545 7.64992 149.378 7.48325 150.311 7.48325C151.778 7.48325 152.961 7.85825 153.861 8.60825C154.761 9.34158 155.245 10.3583 155.311 11.6583H153.561C153.511 10.8583 153.195 10.2166 152.611 9.73325C152.045 9.23325 151.261 8.98325 150.261 8.98325C149.378 8.98325 148.661 9.19158 148.111 9.60825C147.561 10.0249 147.286 10.5416 147.286 11.1583C147.286 11.6916 147.445 12.1333 147.761 12.4833C148.095 12.8166 148.503 13.0833 148.986 13.2833C149.47 13.4666 150.12 13.6749 150.936 13.9083C151.92 14.1749 152.703 14.4333 153.286 14.6833C153.87 14.9333 154.37 15.2999 154.786 15.7833C155.203 16.2666 155.42 16.9083 155.436 17.7083C155.436 18.4416 155.236 19.0999 154.836 19.6833C154.436 20.2499 153.878 20.6999 153.161 21.0333C152.445 21.3666 151.62 21.5333 150.686 21.5333Z" fill="#C3DAF7"/>
<path d="M67.156 37.0533V45.3333H66.316V38.7213L63.364 45.3333H62.752L59.8 38.7453V45.3333H58.96V37.0533H59.848L63.052 44.2293L66.256 37.0533H67.156ZM68.6776 42.0453C68.6776 41.3733 68.8096 40.7853 69.0736 40.2813C69.3456 39.7693 69.7176 39.3773 70.1896 39.1053C70.6696 38.8253 71.2096 38.6853 71.8096 38.6853C72.4336 38.6853 72.9696 38.8293 73.4176 39.1173C73.8736 39.4053 74.2016 39.7733 74.4016 40.2213V38.7813H75.2416V45.3333H74.4016V43.8813C74.1936 44.3293 73.8616 44.7013 73.4056 44.9973C72.9576 45.2853 72.4216 45.4293 71.7976 45.4293C71.2056 45.4293 70.6696 45.2893 70.1896 45.0093C69.7176 44.7293 69.3456 44.3333 69.0736 43.8213C68.8096 43.3093 68.6776 42.7173 68.6776 42.0453ZM74.4016 42.0573C74.4016 41.5293 74.2936 41.0653 74.0776 40.6653C73.8616 40.2653 73.5656 39.9573 73.1896 39.7413C72.8216 39.5253 72.4136 39.4173 71.9656 39.4173C71.5016 39.4173 71.0856 39.5213 70.7176 39.7293C70.3496 39.9373 70.0576 40.2413 69.8416 40.6413C69.6336 41.0333 69.5296 41.5013 69.5296 42.0453C69.5296 42.5813 69.6336 43.0533 69.8416 43.4613C70.0576 43.8613 70.3496 44.1693 70.7176 44.3853C71.0856 44.5933 71.5016 44.6973 71.9656 44.6973C72.4136 44.6973 72.8216 44.5893 73.1896 44.3733C73.5656 44.1573 73.8616 43.8493 74.0776 43.4493C74.2936 43.0493 74.4016 42.5853 74.4016 42.0573ZM80.2312 38.6613C81.0152 38.6613 81.6552 38.9053 82.1512 39.3933C82.6472 39.8733 82.8952 40.5733 82.8952 41.4933V45.3333H82.0672V41.5893C82.0672 40.8773 81.8872 40.3333 81.5272 39.9573C81.1752 39.5813 80.6912 39.3933 80.0752 39.3933C79.4432 39.3933 78.9392 39.5933 78.5632 39.9933C78.1872 40.3933 77.9992 40.9813 77.9992 41.7573V45.3333H77.1592V38.7813H77.9992V39.8973C78.2072 39.4973 78.5072 39.1933 78.8992 38.9853C79.2912 38.7693 79.7352 38.6613 80.2312 38.6613ZM84.369 42.0453C84.369 41.3733 84.501 40.7853 84.765 40.2813C85.037 39.7693 85.409 39.3773 85.881 39.1053C86.361 38.8253 86.901 38.6853 87.501 38.6853C88.125 38.6853 88.661 38.8293 89.109 39.1173C89.565 39.4053 89.893 39.7733 90.093 40.2213V38.7813H90.933V45.3333H90.093V43.8813C89.885 44.3293 89.553 44.7013 89.097 44.9973C88.649 45.2853 88.113 45.4293 87.489 45.4293C86.897 45.4293 86.361 45.2893 85.881 45.0093C85.409 44.7293 85.037 44.3333 84.765 43.8213C84.501 43.3093 84.369 42.7173 84.369 42.0453ZM90.093 42.0573C90.093 41.5293 89.985 41.0653 89.769 40.6653C89.553 40.2653 89.257 39.9573 88.881 39.7413C88.513 39.5253 88.105 39.4173 87.657 39.4173C87.193 39.4173 86.777 39.5213 86.409 39.7293C86.041 39.9373 85.749 40.2413 85.533 40.6413C85.325 41.0333 85.221 41.5013 85.221 42.0453C85.221 42.5813 85.325 43.0533 85.533 43.4613C85.749 43.8613 86.041 44.1693 86.409 44.3853C86.777 44.5933 87.193 44.6973 87.657 44.6973C88.105 44.6973 88.513 44.5893 88.881 44.3733C89.257 44.1573 89.553 43.8493 89.769 43.4493C89.985 43.0493 90.093 42.5853 90.093 42.0573ZM95.5986 38.6853C96.2146 38.6853 96.7506 38.8293 97.2066 39.1173C97.6626 39.4053 97.9906 39.7693 98.1906 40.2093V38.7813H99.0306V45.5013C99.0306 46.1013 98.8986 46.6333 98.6346 47.0973C98.3786 47.5613 98.0186 47.9173 97.5546 48.1653C97.0906 48.4213 96.5626 48.5493 95.9706 48.5493C95.1306 48.5493 94.4306 48.3493 93.8706 47.9493C93.3186 47.5493 92.9746 47.0053 92.8386 46.3173H93.6666C93.8106 46.7733 94.0826 47.1373 94.4826 47.4093C94.8906 47.6813 95.3866 47.8173 95.9706 47.8173C96.3946 47.8173 96.7746 47.7253 97.1106 47.5413C97.4466 47.3653 97.7106 47.1013 97.9026 46.7493C98.0946 46.3973 98.1906 45.9813 98.1906 45.5013V43.8813C97.9826 44.3293 97.6506 44.7013 97.1946 44.9973C96.7466 45.2853 96.2146 45.4293 95.5986 45.4293C94.9986 45.4293 94.4586 45.2893 93.9786 45.0093C93.5066 44.7293 93.1346 44.3333 92.8626 43.8213C92.5986 43.3093 92.4666 42.7173 92.4666 42.0453C92.4666 41.3733 92.5986 40.7853 92.8626 40.2813C93.1346 39.7693 93.5066 39.3773 93.9786 39.1053C94.4586 38.8253 94.9986 38.6853 95.5986 38.6853ZM98.1906 42.0573C98.1906 41.5293 98.0826 41.0653 97.8666 40.6653C97.6506 40.2653 97.3546 39.9573 96.9786 39.7413C96.6106 39.5253 96.2026 39.4173 95.7546 39.4173C95.2906 39.4173 94.8746 39.5213 94.5066 39.7293C94.1386 39.9373 93.8466 40.2413 93.6306 40.6413C93.4226 41.0333 93.3186 41.5013 93.3186 42.0453C93.3186 42.5813 93.4226 43.0533 93.6306 43.4613C93.8466 43.8613 94.1386 44.1693 94.5066 44.3853C94.8746 44.5933 95.2906 44.6973 95.7546 44.6973C96.2026 44.6973 96.6106 44.5893 96.9786 44.3733C97.3546 44.1573 97.6506 43.8493 97.8666 43.4493C98.0826 43.0493 98.1906 42.5853 98.1906 42.0573ZM106.876 41.7213C106.876 42.0093 106.868 42.2293 106.852 42.3813H101.416C101.44 42.8773 101.56 43.3013 101.776 43.6533C101.992 44.0053 102.276 44.2733 102.628 44.4573C102.98 44.6333 103.364 44.7213 103.78 44.7213C104.324 44.7213 104.78 44.5893 105.148 44.3253C105.524 44.0613 105.772 43.7053 105.892 43.2573H106.78C106.62 43.8973 106.276 44.4213 105.748 44.8293C105.228 45.2293 104.572 45.4293 103.78 45.4293C103.164 45.4293 102.612 45.2933 102.124 45.0213C101.636 44.7413 101.252 44.3493 100.972 43.8453C100.7 43.3333 100.564 42.7373 100.564 42.0573C100.564 41.3773 100.7 40.7813 100.972 40.2693C101.244 39.7573 101.624 39.3653 102.112 39.0933C102.6 38.8213 103.156 38.6853 103.78 38.6853C104.404 38.6853 104.948 38.8213 105.412 39.0933C105.884 39.3653 106.244 39.7333 106.492 40.1973C106.748 40.6533 106.876 41.1613 106.876 41.7213ZM106.024 41.6973C106.032 41.2093 105.932 40.7933 105.724 40.4493C105.524 40.1053 105.248 39.8453 104.896 39.6693C104.544 39.4933 104.16 39.4053 103.744 39.4053C103.12 39.4053 102.588 39.6053 102.148 40.0053C101.708 40.4053 101.464 40.9693 101.416 41.6973H106.024ZM116.213 38.6613C116.981 38.6613 117.605 38.9053 118.085 39.3933C118.573 39.8733 118.817 40.5733 118.817 41.4933V45.3333H117.989V41.5893C117.989 40.8773 117.817 40.3333 117.473 39.9573C117.129 39.5813 116.661 39.3933 116.069 39.3933C115.453 39.3933 114.961 39.5973 114.593 40.0053C114.225 40.4133 114.041 41.0053 114.041 41.7813V45.3333H113.213V41.5893C113.213 40.8773 113.041 40.3333 112.697 39.9573C112.353 39.5813 111.881 39.3933 111.281 39.3933C110.665 39.3933 110.173 39.5973 109.805 40.0053C109.437 40.4133 109.253 41.0053 109.253 41.7813V45.3333H108.413V38.7813H109.253V39.9093C109.461 39.5013 109.757 39.1933 110.141 38.9853C110.525 38.7693 110.953 38.6613 111.425 38.6613C111.993 38.6613 112.489 38.7973 112.913 39.0693C113.345 39.3413 113.657 39.7413 113.849 40.2693C114.025 39.7493 114.325 39.3533 114.749 39.0813C115.181 38.8013 115.669 38.6613 116.213 38.6613ZM126.611 41.7213C126.611 42.0093 126.603 42.2293 126.587 42.3813H121.151C121.175 42.8773 121.295 43.3013 121.511 43.6533C121.727 44.0053 122.011 44.2733 122.363 44.4573C122.715 44.6333 123.099 44.7213 123.515 44.7213C124.059 44.7213 124.515 44.5893 124.883 44.3253C125.259 44.0613 125.507 43.7053 125.627 43.2573H126.515C126.355 43.8973 126.011 44.4213 125.483 44.8293C124.963 45.2293 124.307 45.4293 123.515 45.4293C122.899 45.4293 122.347 45.2933 121.859 45.0213C121.371 44.7413 120.987 44.3493 120.707 43.8453C120.435 43.3333 120.299 42.7373 120.299 42.0573C120.299 41.3773 120.435 40.7813 120.707 40.2693C120.979 39.7573 121.359 39.3653 121.847 39.0933C122.335 38.8213 122.891 38.6853 123.515 38.6853C124.139 38.6853 124.683 38.8213 125.147 39.0933C125.619 39.3653 125.979 39.7333 126.227 40.1973C126.483 40.6533 126.611 41.1613 126.611 41.7213ZM125.759 41.6973C125.767 41.2093 125.667 40.7933 125.459 40.4493C125.259 40.1053 124.983 39.8453 124.631 39.6693C124.279 39.4933 123.895 39.4053 123.479 39.4053C122.855 39.4053 122.323 39.6053 121.883 40.0053C121.443 40.4053 121.199 40.9693 121.151 41.6973H125.759ZM131.22 38.6613C132.004 38.6613 132.644 38.9053 133.14 39.3933C133.636 39.8733 133.884 40.5733 133.884 41.4933V45.3333H133.056V41.5893C133.056 40.8773 132.876 40.3333 132.516 39.9573C132.164 39.5813 131.68 39.3933 131.064 39.3933C130.432 39.3933 129.928 39.5933 129.552 39.9933C129.176 40.3933 128.988 40.9813 128.988 41.7573V45.3333H128.148V38.7813H128.988V39.8973C129.196 39.4973 129.496 39.1933 129.888 38.9853C130.28 38.7693 130.724 38.6613 131.22 38.6613ZM136.833 39.4893V43.5573C136.833 43.9573 136.909 44.2333 137.061 44.3853C137.213 44.5373 137.481 44.6133 137.865 44.6133H138.633V45.3333H137.733C137.141 45.3333 136.701 45.1973 136.413 44.9253C136.125 44.6453 135.981 44.1893 135.981 43.5573V39.4893H135.069V38.7813H135.981V37.1373H136.833V38.7813H138.633V39.4893H136.833Z" fill="#C3DAF7"/>
<path d="M64.324 55.3573C64.324 56.0773 64.088 56.6573 63.616 57.0973C63.144 57.5373 62.436 57.7573 61.492 57.7573H59.8V61.3333H58.96V52.9453H61.492C62.428 52.9453 63.132 53.1653 63.604 53.6053C64.084 54.0453 64.324 54.6293 64.324 55.3573ZM61.492 57.0373C62.804 57.0373 63.46 56.4773 63.46 55.3573C63.46 54.7973 63.304 54.3733 62.992 54.0853C62.68 53.7973 62.18 53.6533 61.492 53.6533H59.8V57.0373H61.492ZM66.5734 52.4533V61.3333H65.7334V52.4533H66.5734ZM68.0916 58.0453C68.0916 57.3733 68.2236 56.7853 68.4876 56.2813C68.7596 55.7693 69.1316 55.3773 69.6036 55.1053C70.0836 54.8253 70.6236 54.6853 71.2236 54.6853C71.8476 54.6853 72.3836 54.8293 72.8316 55.1173C73.2876 55.4053 73.6156 55.7733 73.8156 56.2213V54.7813H74.6556V61.3333H73.8156V59.8813C73.6076 60.3293 73.2756 60.7013 72.8196 60.9973C72.3716 61.2853 71.8356 61.4293 71.2116 61.4293C70.6196 61.4293 70.0836 61.2893 69.6036 61.0093C69.1316 60.7293 68.7596 60.3333 68.4876 59.8213C68.2236 59.3093 68.0916 58.7173 68.0916 58.0453ZM73.8156 58.0573C73.8156 57.5293 73.7076 57.0653 73.4916 56.6653C73.2756 56.2653 72.9796 55.9573 72.6036 55.7413C72.2356 55.5253 71.8276 55.4173 71.3796 55.4173C70.9156 55.4173 70.4996 55.5213 70.1316 55.7293C69.7636 55.9373 69.4716 56.2413 69.2556 56.6413C69.0476 57.0333 68.9436 57.5013 68.9436 58.0453C68.9436 58.5813 69.0476 59.0533 69.2556 59.4613C69.4716 59.8613 69.7636 60.1693 70.1316 60.3853C70.4996 60.5933 70.9156 60.6973 71.3796 60.6973C71.8276 60.6973 72.2356 60.5893 72.6036 60.3733C72.9796 60.1573 73.2756 59.8493 73.4916 59.4493C73.7076 59.0493 73.8156 58.5853 73.8156 58.0573ZM77.6653 55.4893V59.5573C77.6653 59.9573 77.7413 60.2333 77.8933 60.3853C78.0453 60.5373 78.3133 60.6133 78.6973 60.6133H79.4653V61.3333H78.5653C77.9733 61.3333 77.5333 61.1973 77.2453 60.9253C76.9573 60.6453 76.8133 60.1893 76.8133 59.5573V55.4893H75.9013V54.7813H76.8133V53.1373H77.6653V54.7813H79.4653V55.4893H77.6653ZM83.4306 55.4893H81.9066V61.3333H81.0666V55.4893H80.1546V54.7813H81.0666V54.3253C81.0666 53.6133 81.2466 53.0893 81.6066 52.7533C81.9746 52.4173 82.5666 52.2493 83.3826 52.2493V52.9693C82.8386 52.9693 82.4546 53.0733 82.2306 53.2813C82.0146 53.4893 81.9066 53.8373 81.9066 54.3253V54.7813H83.4306V55.4893ZM87.621 61.4293C87.005 61.4293 86.449 61.2933 85.953 61.0213C85.465 60.7413 85.077 60.3493 84.789 59.8453C84.509 59.3333 84.369 58.7373 84.369 58.0573C84.369 57.3773 84.513 56.7853 84.801 56.2813C85.089 55.7693 85.481 55.3773 85.977 55.1053C86.473 54.8253 87.029 54.6853 87.645 54.6853C88.261 54.6853 88.817 54.8253 89.313 55.1053C89.817 55.3773 90.209 55.7693 90.489 56.2813C90.777 56.7853 90.921 57.3773 90.921 58.0573C90.921 58.7293 90.777 59.3213 90.489 59.8333C90.201 60.3453 89.805 60.7413 89.301 61.0213C88.797 61.2933 88.237 61.4293 87.621 61.4293ZM87.621 60.6973C88.053 60.6973 88.453 60.6013 88.821 60.4093C89.189 60.2093 89.485 59.9133 89.709 59.5213C89.941 59.1213 90.057 58.6333 90.057 58.0573C90.057 57.4813 89.945 56.9973 89.721 56.6053C89.497 56.2053 89.201 55.9093 88.833 55.7173C88.465 55.5173 88.065 55.4173 87.633 55.4173C87.201 55.4173 86.801 55.5173 86.433 55.7173C86.065 55.9093 85.769 56.2053 85.545 56.6053C85.329 56.9973 85.221 57.4813 85.221 58.0573C85.221 58.6333 85.329 59.1213 85.545 59.5213C85.769 59.9133 86.061 60.2093 86.421 60.4093C86.789 60.6013 87.189 60.6973 87.621 60.6973ZM93.2922 55.9453C93.4762 55.5373 93.7562 55.2213 94.1322 54.9973C94.5162 54.7733 94.9842 54.6613 95.5362 54.6613V55.5373H95.3082C94.7002 55.5373 94.2122 55.7013 93.8442 56.0293C93.4762 56.3573 93.2922 56.9053 93.2922 57.6733V61.3333H92.4522V54.7813H93.2922V55.9453ZM104.6 54.6613C105.368 54.6613 105.992 54.9053 106.472 55.3933C106.96 55.8733 107.204 56.5733 107.204 57.4933V61.3333H106.376V57.5893C106.376 56.8773 106.204 56.3333 105.86 55.9573C105.516 55.5813 105.048 55.3933 104.456 55.3933C103.84 55.3933 103.348 55.5973 102.98 56.0053C102.612 56.4133 102.428 57.0053 102.428 57.7813V61.3333H101.6V57.5893C101.6 56.8773 101.428 56.3333 101.084 55.9573C100.74 55.5813 100.268 55.3933 99.6678 55.3933C99.0518 55.3933 98.5598 55.5973 98.1918 56.0053C97.8238 56.4133 97.6398 57.0053 97.6398 57.7813V61.3333H96.7998V54.7813H97.6398V55.9093C97.8478 55.5013 98.1438 55.1933 98.5278 54.9853C98.9118 54.7693 99.3398 54.6613 99.8118 54.6613C100.38 54.6613 100.876 54.7973 101.3 55.0693C101.732 55.3413 102.044 55.7413 102.236 56.2693C102.412 55.7493 102.712 55.3533 103.136 55.0813C103.568 54.8013 104.056 54.6613 104.6 54.6613Z" fill="#C3DAF7"/>
</g>
<defs>
<clipPath id="clip0_337_5325">
<rect width="231" height="64" fill="white"/>
</clipPath>
</defs>
</svg>
