<svg id="icon" width="24" height="25" viewBox="0 0 24 25" fill="none" xmlns="http://www.w3.org/2000/svg">
<path d="M17.3429 3.97489L13.409 7.90882L13.9394 10.5605L16.591 11.0908L20.5249 7.15687L20.5253 7.15671C21.0122 8.30611 21.1287 9.57873 20.8585 10.7974C20.5882 12.0161 19.9448 13.1202 19.0177 13.9561C18.0905 14.7919 16.9259 15.318 15.6858 15.4609C14.4457 15.6039 13.1919 15.3566 12.099 14.7536L12.0991 14.7534L6.841 20.8408C6.41896 21.2624 5.84679 21.4991 5.25028 21.4989C4.65376 21.4987 4.08173 21.2617 3.65993 20.8399C3.23813 20.4181 3.00109 19.8461 3.00092 19.2495C3.00075 18.653 3.23746 18.0809 3.65902 17.6588L9.74634 12.4008L9.74621 12.4009C9.1432 11.3079 8.89597 10.0541 9.03891 8.81402C9.18185 7.57394 9.70787 6.40929 10.5437 5.48216C11.3796 4.55504 12.4837 3.91158 13.7024 3.64135C14.9211 3.37113 16.1937 3.48758 17.3431 3.97451L17.3429 3.97489Z" stroke="#A5BBD6" stroke-width="1.5" stroke-linecap="round" stroke-linejoin="round"/>
</svg>
