<svg id="compass" width="64" height="64" viewBox="0 0 64 64" fill="none" xmlns="http://www.w3.org/2000/svg">
  <g>
    <circle cx="32" cy="7" r="3" fill="#7B98BD" />
    <circle cx="32" cy="57" r="3" fill="#7B98BD" />
    <ellipse cx="57" cy="32" rx="3" ry="3" transform="rotate(90 57 32)" fill="#7B98BD" />
    <ellipse cx="7" cy="32" rx="3" ry="3" transform="rotate(90 7 32)" fill="#7B98BD" />
    <ellipse cx="11" cy="20" rx="1" ry="1" transform="rotate(90 11 20)" fill="#7B98BD" />
    <ellipse cx="19" cy="11" rx="1" ry="1" transform="rotate(90 19 11)" fill="#7B98BD" />
    <ellipse cx="53" cy="44" rx="1" ry="1" transform="rotate(-90 53 44)" fill="#7B98BD" />
    <ellipse cx="45" cy="53" rx="1" ry="1" transform="rotate(-90 45 53)" fill="#7B98BD" />
    <ellipse cx="44" cy="11" rx="1" ry="1" transform="rotate(-180 44 11)" fill="#7B98BD" />
    <ellipse cx="53" cy="19" rx="1" ry="1" transform="rotate(-180 53 19)" fill="#7B98BD" />
    <ellipse cx="20" cy="53" rx="1" ry="1" fill="#7B98BD" />
    <ellipse cx="11" cy="45" rx="1" ry="1" fill="#7B98BD" />
  </g>
</svg>