<svg width="386" height="336" viewBox="0 0 386 336" fill="none" xmlns="http://www.w3.org/2000/svg">
<g clip-path="url(#clip0_461_4518)">
<g filter="url(#filter0_d_461_4518)">
<rect x="-3" y="3" width="393" height="330" rx="24" fill="white"/>
</g>
<g clip-path="url(#clip1_461_4518)">
<g clip-path="url(#clip2_461_4518)">
<rect x="-3" y="-101.808" width="393" height="533.615" rx="28.844" fill="#64768F"/>
<path d="M169.463 320.638C170.58 366.57 134.61 433.009 134.61 433.009L390 431.807V0.348633C390 0.348633 348.437 56.9324 328.706 92.289C308.015 129.369 315.995 162.554 285.44 192.041C243.313 232.697 157.343 167.752 138.817 223.289C126.204 261.097 168.495 280.793 169.463 320.638Z" fill="#6F829E"/>
<path d="M57.6927 338.665C64.1512 313.434 89.6957 294.329 114.179 303.211C138.737 312.12 146.001 343.399 134.61 366.908C124.542 387.686 103.488 401.072 81.7294 393.349C59.7462 385.545 51.9081 361.264 57.6927 338.665Z" fill="#6F829E"/>
<path d="M169.463 320.638C170.58 366.57 134.61 433.009 134.61 433.009L390 431.807V0.348633C390 0.348633 348.437 56.9324 328.706 92.289C308.015 129.369 315.995 162.554 285.44 192.041C243.313 232.697 157.343 167.752 138.817 223.289C126.204 261.097 168.495 280.793 169.463 320.638Z" stroke="#50627A" stroke-width="1.20183"/>
<path d="M57.6927 338.665C64.1512 313.434 89.6957 294.329 114.179 303.211C138.737 312.12 146.001 343.399 134.61 366.908C124.542 387.686 103.488 401.072 81.7294 393.349C59.7462 385.545 51.9081 361.264 57.6927 338.665Z" stroke="#50627A" stroke-width="1.20183"/>
<path d="M224.147 321.84C231.459 364.158 224.147 431.808 224.147 431.808H390V125.34C390 125.34 374.195 209.108 337.119 237.711C295.773 269.61 216.791 202.627 204.316 253.335C197.664 280.38 219.404 294.396 224.147 321.84Z" fill="#8497B2"/>
<path d="M80.5275 346.477C83.0399 335.882 91.9674 328.218 102.761 329.652C114.573 331.221 121.567 343.859 118.986 355.491C116.505 366.678 106.13 374.826 94.9496 372.317C83.6738 369.786 77.8612 357.722 80.5275 346.477Z" fill="#8497B2"/>
<path d="M224.147 321.84C231.459 364.158 224.147 431.808 224.147 431.808H390V125.34C390 125.34 374.195 209.108 337.119 237.711C295.773 269.61 216.791 202.627 204.316 253.335C197.664 280.38 219.404 294.396 224.147 321.84Z" stroke="#50627A" stroke-width="1.20183"/>
<path d="M80.5275 346.477C83.0399 335.882 91.9674 328.218 102.761 329.652C114.573 331.221 121.567 343.859 118.986 355.491C116.505 366.678 106.13 374.826 94.9496 372.317C83.6738 369.786 77.8612 357.722 80.5275 346.477Z" stroke="#50627A" stroke-width="1.20183"/>
<path d="M293.853 431.807C308.275 380.729 224.748 305.014 250.587 275.569C276.427 246.124 344.931 305.014 390 225.092V431.807H293.853Z" fill="#91A5BF" stroke="#50627A" stroke-width="1.20183"/>
<path d="M102.761 107.913C71.749 151.788 -4.20181 194.445 -4.20181 194.445V-101.808H264.408C264.408 -101.808 180.348 -53.5225 147.229 -6.86266C119.407 32.3358 130.507 68.6592 102.761 107.913Z" fill="#6F829E"/>
<path d="M193.5 -12.2709C168.82 8.19531 152.151 36.5553 166.459 65.2474C186.377 105.189 251.031 48.9387 264.408 6.35753C272.031 -17.9059 279.762 -43.853 259 -58.5416C248.184 -66.194 218.138 -32.7021 193.5 -12.2709Z" fill="#6F829E"/>
<path d="M102.761 107.913C71.749 151.788 -4.20181 194.445 -4.20181 194.445V-101.808H264.408C264.408 -101.808 180.348 -53.5225 147.229 -6.86266C119.407 32.3358 130.507 68.6592 102.761 107.913Z" stroke="#50627A" stroke-width="1.20183"/>
<path d="M193.5 -12.2709C168.82 8.19531 152.151 36.5553 166.459 65.2474C186.377 105.189 251.031 48.9387 264.408 6.35753C272.031 -17.9059 279.762 -43.853 259 -58.5416C248.184 -66.194 218.138 -32.7021 193.5 -12.2709Z" stroke="#50627A" stroke-width="1.20183"/>
<path d="M73.9174 73.6603C52.2956 101.832 -5.40367 118.128 -5.40367 118.128L-6.60556 -101.808H186.89C186.89 -101.808 113.302 -76.6548 89.5413 -39.3122C65.6315 -1.73569 101.035 38.3286 73.9174 73.6603Z" fill="#8497B2"/>
<path d="M209.725 6.35753C199.305 19.4123 186.152 29.886 192.298 45.4172C200.729 66.7225 233.963 35.1806 241.573 13.5685C245.704 1.83696 251.168 -10.3658 241.573 -18.2801C229.443 -28.286 219.534 -5.93274 209.725 6.35753Z" fill="#8497B2"/>
<path d="M73.9174 73.6603C52.2956 101.832 -5.40367 118.128 -5.40367 118.128L-6.60556 -101.808H186.89C186.89 -101.808 113.302 -76.6548 89.5413 -39.3122C65.6315 -1.73569 101.035 38.3286 73.9174 73.6603Z" stroke="#50627A" stroke-width="1.20183"/>
<path d="M209.725 6.35753C199.305 19.4123 186.152 29.886 192.298 45.4172C200.729 66.7225 233.963 35.1806 241.573 13.5685C245.704 1.83696 251.168 -10.3658 241.573 -18.2801C229.443 -28.286 219.534 -5.93274 209.725 6.35753Z" stroke="#50627A" stroke-width="1.20183"/>
<path d="M51.6835 3.95452C50.5847 -33.016 -6.00461 -71.1602 -6.00461 -71.1602V83.8765C-6.00461 83.8765 52.827 42.4303 51.6835 3.95452Z" fill="#91A5BF" stroke="#50627A" stroke-width="1.20183"/>
</g>
<path d="M24 402C24 402 -19.5002 223.5 118 175C255.5 126.5 282 -61.5002 282 -61.5002" stroke="#4E5D70" stroke-width="5"/>
<path d="M-83 279.653L398 25.3477" stroke="#8EB1DE" stroke-width="6" stroke-linecap="round" stroke-dasharray="17.44 40.69"/>
<path d="M152.294 139.404L85.3815 174.888C83.5006 175.885 82.8087 178.206 83.8061 180.087L93.4005 198.179C94.3979 200.06 96.7313 200.776 98.6121 199.779L165.501 164.307C179.399 156.937 186.719 143.251 184.174 138.452C181.629 133.653 166.193 132.033 152.294 139.404Z" fill="#A5BBD6"/>
<path d="M151.132 137.213L84.2196 172.697C81.1083 174.347 79.9868 178.178 81.6151 181.249L91.2095 199.341C92.8486 202.432 96.6831 203.609 99.774 201.97L166.663 166.498C173.997 162.609 179.609 157.052 183.076 151.778C184.808 149.143 186.052 146.507 186.682 144.111C187.289 141.805 187.432 139.304 186.365 137.29C185.297 135.276 183.146 133.992 180.896 133.2C178.56 132.378 175.679 131.929 172.526 131.885C166.215 131.796 158.467 133.323 151.132 137.213Z" stroke="#4E5D70" stroke-opacity="0.3" stroke-width="4.96"/>
</g>
</g>
<defs>
<filter id="filter0_d_461_4518" x="-20" y="3" width="427" height="368" filterUnits="userSpaceOnUse" color-interpolation-filters="sRGB">
<feFlood flood-opacity="0" result="BackgroundImageFix"/>
<feColorMatrix in="SourceAlpha" type="matrix" values="0 0 0 0 0 0 0 0 0 0 0 0 0 0 0 0 0 0 127 0" result="hardAlpha"/>
<feMorphology radius="17" operator="erode" in="SourceAlpha" result="effect1_dropShadow_461_4518"/>
<feOffset dy="21"/>
<feGaussianBlur stdDeviation="17"/>
<feComposite in2="hardAlpha" operator="out"/>
<feColorMatrix type="matrix" values="0 0 0 0 0.270588 0 0 0 0 0.298039 0 0 0 0 0.309804 0 0 0 0.2 0"/>
<feBlend mode="normal" in2="BackgroundImageFix" result="effect1_dropShadow_461_4518"/>
<feBlend mode="normal" in="SourceGraphic" in2="effect1_dropShadow_461_4518" result="shape"/>
</filter>
<clipPath id="clip0_461_4518">
<rect width="386" height="336" fill="white"/>
</clipPath>
<clipPath id="clip1_461_4518">
<rect width="386" height="336" fill="white"/>
</clipPath>
<clipPath id="clip2_461_4518">
<rect width="386" height="336" fill="white"/>
</clipPath>
</defs>
</svg>
