<svg id="icon" width="33" height="32" viewBox="0 0 33 32" fill="none" xmlns="http://www.w3.org/2000/svg">
<path d="M11.5 18.5C11.5 16.8189 11.9985 15.1755 12.9325 13.7777C13.8665 12.3798 15.194 11.2904 16.7472 10.647C18.3004 10.0037 20.0095 9.83535 21.6583 10.1633C23.3071 10.4913 24.8217 11.3008 26.0104 12.4896C27.1992 13.6783 28.0087 15.1929 28.3367 16.8417C28.6647 18.4906 28.4963 20.1996 27.853 21.7528C27.2097 23.306 26.1202 24.6335 24.7224 25.5675C23.3246 26.5015 21.6812 27 20 27H10C9.20145 26.9993 8.41259 26.8248 7.68829 26.4884C6.96399 26.1521 6.32162 25.6621 5.80582 25.0525C5.29002 24.4428 4.91317 23.7281 4.70145 22.9581C4.48973 22.1881 4.44823 21.3813 4.57984 20.5936C4.71144 19.806 5.01299 19.0564 5.46352 18.3971C5.91405 17.7377 6.50277 17.1844 7.18874 16.7755C7.87471 16.3667 8.64149 16.1121 9.43579 16.0295C10.2301 15.9469 11.0328 16.0383 11.7882 16.2972" stroke="#8EB1DE" stroke-width="2" stroke-linecap="round" stroke-linejoin="round"/>
<path d="M6.37372 17.3661C5.21147 16.8716 4.18254 16.1093 3.3708 15.1416C2.55906 14.1739 1.9875 13.028 1.7027 11.7974L1.70273 11.7973C3.02465 12.1005 4.40194 12.063 5.70539 11.6883C7.00884 11.3135 8.19574 10.6138 9.15476 9.65478C10.1138 8.69577 10.8135 7.50886 11.1882 6.20541C11.563 4.90196 11.6005 3.52468 11.2973 2.20275L11.2974 2.20273C13.0605 2.60982 14.6336 3.60237 15.76 5.01844C16.8865 6.43452 17.4998 8.19053 17.5 10C17.5 10.1262 17.4971 10.2517 17.4913 10.3765" stroke="#8EB1DE" stroke-width="2" stroke-linecap="round" stroke-linejoin="round"/>
</svg>
