<svg id="icon" width="32" height="33" viewBox="0 0 32 33" fill="none" xmlns="http://www.w3.org/2000/svg">
<path d="M15.3006 1.79859L5.51614 21.943C5.42401 22.1327 5.3942 22.3467 5.43098 22.5544C5.46776 22.762 5.56925 22.9527 5.72093 23.0992C5.87262 23.2457 6.06674 23.3405 6.27555 23.3701C6.48436 23.3996 6.69716 23.3624 6.88354 23.2637L15.7322 18.5791C15.8764 18.5028 16.037 18.4629 16.2001 18.4629C16.3632 18.4629 16.5238 18.5028 16.668 18.5791L25.5167 23.2637C25.703 23.3624 25.9158 23.3996 26.1246 23.3701C26.3335 23.3405 26.5276 23.2457 26.6793 23.0992C26.8309 22.9527 26.9324 22.762 26.9692 22.5544C27.006 22.3467 26.9762 22.1327 26.8841 21.943L17.0996 1.79859C17.0176 1.62978 16.8898 1.48745 16.7307 1.38787C16.5716 1.2883 16.3878 1.23549 16.2001 1.23549C16.0124 1.23549 15.8286 1.2883 15.6695 1.38787C15.5104 1.48745 15.3826 1.62978 15.3006 1.79859Z" stroke="#8EB1DE" stroke-width="2" stroke-linecap="round" stroke-linejoin="round"/>
</svg>
