<svg id="icon" width="20" height="20" viewBox="0 0 20 20" fill="none" xmlns="http://www.w3.org/2000/svg">
<path d="M1.875 14.375V12.5882C1.875 8.09766 5.48075 4.39059 9.97126 4.37505C11.0407 4.37127 12.1003 4.57863 13.0894 4.98526C14.0785 5.39188 14.9776 5.98976 15.7351 6.74461C16.4926 7.49945 17.0936 8.39642 17.5038 9.38406C17.9139 10.3717 18.125 11.4306 18.125 12.5V14.375C18.125 14.5408 18.0592 14.6997 17.9419 14.8169C17.8247 14.9342 17.6658 15 17.5 15H2.5C2.33424 15 2.17527 14.9342 2.05806 14.8169C1.94085 14.6997 1.875 14.5408 1.875 14.375Z" stroke="#8EB1DE" stroke-width="1.25" stroke-linecap="round" stroke-linejoin="round"/>
<path d="M10 4.375V6.875" stroke="#8EB1DE" stroke-width="1.25" stroke-linecap="round" stroke-linejoin="round"/>
<path d="M2.15186 10.397L4.56667 11.044" stroke="#8EB1DE" stroke-width="1.25" stroke-linecap="round" stroke-linejoin="round"/>
<path d="M17.8482 10.397L15.4333 11.044" stroke="#8EB1DE" stroke-width="1.25" stroke-linecap="round" stroke-linejoin="round"/>
<path d="M8.08167 15.0002L13.4243 8.0376" stroke="#8EB1DE" stroke-width="1.25" stroke-linecap="round" stroke-linejoin="round"/>
</svg>
