<svg id="icon" width="32" height="32" viewBox="0 0 32 32" fill="none" xmlns="http://www.w3.org/2000/svg">
<path d="M16 13V18" stroke="white" stroke-width="2" stroke-linecap="round" stroke-linejoin="round"/>
<path d="M14.275 4.99983L3.27504 23.9998C3.0998 24.3033 3.00739 24.6476 3.00708 24.9981C3.00677 25.3485 3.09856 25.693 3.27327 25.9968C3.44797 26.3006 3.69945 26.5532 4.00251 26.7292C4.30556 26.9053 4.64956 26.9986 5.00004 26.9998H27C27.3505 26.9986 27.6945 26.9053 27.9976 26.7292C28.3006 26.5532 28.5521 26.3006 28.7268 25.9968C28.9015 25.693 28.9933 25.3485 28.993 24.9981C28.9927 24.6476 28.9003 24.3033 28.725 23.9998L17.725 4.99983C17.5511 4.69591 17.3 4.44334 16.9971 4.26768C16.6941 4.09202 16.3502 3.99951 16 3.99951C15.6499 3.99951 15.3059 4.09202 15.003 4.26768C14.7001 4.44334 14.449 4.69591 14.275 4.99983V4.99983Z" stroke="white" stroke-width="2" stroke-linecap="round" stroke-linejoin="round"/>
<path d="M16 24C16.8284 24 17.5 23.3284 17.5 22.5C17.5 21.6716 16.8284 21 16 21C15.1716 21 14.5 21.6716 14.5 22.5C14.5 23.3284 15.1716 24 16 24Z" fill="white"/>
</svg>
