<svg id="icon" width="20" height="20" viewBox="0 0 20 20" fill="none" xmlns="http://www.w3.org/2000/svg">
<path d="M10.116 15.0257C10.2348 15.347 10.4394 15.6297 10.7076 15.8429C10.9758 16.0562 11.2973 16.1919 11.6372 16.2353C11.977 16.2787 12.3223 16.2282 12.6355 16.0892C12.9486 15.9502 13.2178 15.7281 13.4136 15.4469C13.6094 15.1658 13.7244 14.8363 13.7462 14.4944C13.768 14.1524 13.6957 13.8111 13.5371 13.5073C13.3785 13.2036 13.1397 12.9491 12.8467 12.7715C12.5537 12.594 12.2176 12.5 11.875 12.5H3.125" stroke="#8EB1DE" stroke-width="1.25" stroke-linecap="round" stroke-linejoin="round"/>
<path d="M7.61598 4.97432C7.73482 4.65296 7.93944 4.3703 8.20762 4.15704C8.4758 3.94379 8.79728 3.80808 9.13715 3.76466C9.47702 3.72124 9.82229 3.77177 10.1355 3.91076C10.4486 4.04975 10.7178 4.27189 10.9136 4.55306C11.1094 4.83422 11.2244 5.16366 11.2462 5.5056C11.268 5.84754 11.1957 6.18891 11.0371 6.49264C10.8785 6.79637 10.6397 7.05085 10.3467 7.22844C10.0537 7.40603 9.71763 7.49995 9.375 7.49999H1.875" stroke="#8EB1DE" stroke-width="1.25" stroke-linecap="round" stroke-linejoin="round"/>
<path d="M14.491 7.47432C14.6098 7.15296 14.8144 6.8703 15.0826 6.65704C15.3508 6.44379 15.6723 6.30808 16.0122 6.26466C16.352 6.22124 16.6973 6.27177 17.0105 6.41076C17.3236 6.54975 17.5928 6.77189 17.7886 7.05306C17.9844 7.33422 18.0994 7.66366 18.1212 8.0056C18.143 8.34754 18.0707 8.68891 17.9121 8.99264C17.7535 9.29637 17.5147 9.55085 17.2217 9.72844C16.9287 9.90603 16.5926 9.99995 16.25 9.99999H2.5" stroke="#8EB1DE" stroke-width="1.25" stroke-linecap="round" stroke-linejoin="round"/>
</svg>
